<?xml version="1.0" encoding="UTF-8"?><!DOCTYPE svg PUBLIC "-//W3C//DTD SVG 1.1//EN" "http://www.w3.org/Graphics/SVG/1.1/DTD/svg11.dtd"><svg xmlns="http://www.w3.org/2000/svg" xmlns:xlink="http://www.w3.org/1999/xlink"><defs/><symbol id="add" viewBox="0 0 24 24">
    <path d="M18 12.75H6C5.59 12.75 5.25 12.41 5.25 12C5.25 11.59 5.59 11.25 6 11.25H18C18.41 11.25 18.75 11.59 18.75 12C18.75 12.41 18.41 12.75 18 12.75Z" fill="currentColor"/>
    <path d="M12 18.75C11.59 18.75 11.25 18.41 11.25 18V6C11.25 5.59 11.59 5.25 12 5.25C12.41 5.25 12.75 5.59 12.75 6V18C12.75 18.41 12.41 18.75 12 18.75Z" fill="currentColor"/>
</symbol><symbol id="arrowForward" viewBox="0 0 24 24">
    <path d="M11.1161 6.88388C10.628 6.39573 10.628 5.60427 11.1161 5.11612C11.6043 4.62796 12.3957 4.62796 12.8839 5.11612L11.1161 6.88388ZM18 12L18.8839 11.1161C19.1183 11.3505 19.25 11.6685 19.25 12C19.25 12.3315 19.1183 12.6495 18.8839 12.8839L18 12ZM12.8839 18.8839C12.3957 19.372 11.6043 19.372 11.1161 18.8839C10.628 18.3957 10.628 17.6043 11.1161 17.1161L12.8839 18.8839ZM12.8839 5.11612L18.8839 11.1161L17.1161 12.8839L11.1161 6.88388L12.8839 5.11612ZM18.8839 12.8839L12.8839 18.8839L11.1161 17.1161L17.1161 11.1161L18.8839 12.8839Z" fill="currentColor"/>
    <path d="M6 12L17 12" stroke="currentColor" stroke-width="2.5" stroke-linecap="round" stroke-linejoin="round"/>
</symbol><symbol id="back" viewBox="0 0 24 24">
    <path fill-rule="evenodd" clip-rule="evenodd" d="M22 12.0002C22 6.47736 17.5225 2.00024 12 2.00024C6.47745 2.00024 2 6.47736 2 12.0002C2 17.5225 6.47779 22.0002 12 22.0002C17.5222 22.0002 22 17.5225 22 12.0002ZM20.5 12.0002C20.5 16.694 16.6938 20.5002 12 20.5002C7.30621 20.5002 3.5 16.694 3.5 12.0002C3.5 7.30582 7.30586 3.50024 12 3.50024C16.6941 3.50024 20.5 7.30582 20.5 12.0002ZM14.0443 8.97655C14.2628 8.68341 14.2395 8.2667 13.9738 7.99986C13.6815 7.70633 13.2066 7.70531 12.9131 7.99757L9.42711 11.4686L9.35412 11.5528C9.13513 11.8469 9.15946 12.265 9.42711 12.5315L12.9131 16.0025L12.9974 16.075C13.2915 16.2922 13.7081 16.2671 13.9738 16.0002L14.0462 15.916C14.2634 15.6219 14.2383 15.2053 13.9715 14.9396L11.02 11.999L13.9715 9.06052L14.0443 8.97655Z" fill="currentColor"/>
</symbol><symbol id="clipboard" viewBox="0 0 24 24">
    <path d="M11.25 2.25C10.3066 2.25 9.63574 2.91797 9.30469 3.75H3.75V21H9.75V22.5H20.25V10.5H18.75V3.75H13.1953C12.8643 2.91797 12.1934 2.25 11.25 2.25ZM11.25 3.75C11.666 3.75 12 4.08398 12 4.5V5.25H14.25V6.75H8.25V5.25H10.5V4.5C10.5 4.08398 10.834 3.75 11.25 3.75ZM5.25 5.25H6.75V8.25H15.75V5.25H17.25V10.5H9.75V19.5H5.25V5.25ZM11.25 12H18.75V21H11.25V12Z" fill="currentColor"/>
</symbol><symbol id="close" viewBox="0 0 32 32">
    <path d="M9.65723 10.3438L20.9709 21.6575" stroke="currentColor" stroke-width="1.5" stroke-linecap="round" stroke-linejoin="round"/>
    <path d="M9.65723 21.6562L20.9709 10.3425" stroke="currentColor" stroke-width="1.5" stroke-linecap="round" stroke-linejoin="round"/>
</symbol><symbol id="dashboard" viewBox="0 0 24 24">
    <path fill-rule="evenodd" clip-rule="evenodd" d="M16.2856 2H19.5522C20.9037 2 22.0001 3.1059 22.0001 4.47018V7.7641C22.0001 9.12735 20.9037 10.2343 19.5522 10.2343H16.2856C14.933 10.2343 13.8367 9.12735 13.8367 7.7641V4.47018C13.8367 3.1059 14.933 2 16.2856 2Z" stroke="currentColor" fill-opacity="0" stroke-width="1.5" stroke-linecap="round" stroke-linejoin="round"/>
    <path fill-rule="evenodd" clip-rule="evenodd" d="M4.44892 2H7.71449C9.06703 2 10.1634 3.1059 10.1634 4.47018V7.7641C10.1634 9.12735 9.06703 10.2343 7.71449 10.2343H4.44892C3.09638 10.2343 2 9.12735 2 7.7641V4.47018C2 3.1059 3.09638 2 4.44892 2Z" stroke="currentColor" fill-opacity="0" stroke-width="1.5" stroke-linecap="round" stroke-linejoin="round"/>
    <path fill-rule="evenodd" clip-rule="evenodd" d="M4.44892 13.7657H7.71449C9.06703 13.7657 10.1634 14.8716 10.1634 16.2369V19.5298C10.1634 20.8941 9.06703 22 7.71449 22H4.44892C3.09638 22 2 20.8941 2 19.5298V16.2369C2 14.8716 3.09638 13.7657 4.44892 13.7657Z" stroke="currentColor" fill-opacity="0" stroke-width="1.5" stroke-linecap="round" stroke-linejoin="round"/>
    <path fill-rule="evenodd" clip-rule="evenodd" d="M16.2856 13.7657H19.5522C20.9037 13.7657 22.0001 14.8716 22.0001 16.2369V19.5298C22.0001 20.8941 20.9037 22 19.5522 22H16.2856C14.933 22 13.8367 20.8941 13.8367 19.5298V16.2369C13.8367 14.8716 14.933 13.7657 16.2856 13.7657Z" stroke="currentColor" fill-opacity="0" stroke-width="1.5" stroke-linecap="round" stroke-linejoin="round"/>
</symbol><symbol id="delete" viewBox="0 0 24 24">
    <path d="M20.9997 6.72998C20.9797 6.72998 20.9497 6.72998 20.9197 6.72998C15.6297 6.19998 10.3497 5.99998 5.11967 6.52998L3.07967 6.72998C2.65967 6.76998 2.28967 6.46998 2.24967 6.04998C2.20967 5.62998 2.50967 5.26998 2.91967 5.22998L4.95967 5.02998C10.2797 4.48998 15.6697 4.69998 21.0697 5.22998C21.4797 5.26998 21.7797 5.63998 21.7397 6.04998C21.7097 6.43998 21.3797 6.72998 20.9997 6.72998Z" fill="currentColor"/>
    <path d="M8.50074 5.72C8.46074 5.72 8.42074 5.72 8.37074 5.71C7.97074 5.64 7.69074 5.25 7.76074 4.85L7.98074 3.54C8.14074 2.58 8.36074 1.25 10.6907 1.25H13.3107C15.6507 1.25 15.8707 2.63 16.0207 3.55L16.2407 4.85C16.3107 5.26 16.0307 5.65 15.6307 5.71C15.2207 5.78 14.8307 5.5 14.7707 5.1L14.5507 3.8C14.4107 2.93 14.3807 2.76 13.3207 2.76H10.7007C9.64074 2.76 9.62074 2.9 9.47074 3.79L9.24074 5.09C9.18074 5.46 8.86074 5.72 8.50074 5.72Z" fill="currentColor"/>
    <path d="M15.2104 22.7501H8.79039C5.30039 22.7501 5.16039 20.8201 5.05039 19.2601L4.40039 9.19007C4.37039 8.78007 4.69039 8.42008 5.10039 8.39008C5.52039 8.37008 5.87039 8.68008 5.90039 9.09008L6.55039 19.1601C6.66039 20.6801 6.70039 21.2501 8.79039 21.2501H15.2104C17.3104 21.2501 17.3504 20.6801 17.4504 19.1601L18.1004 9.09008C18.1304 8.68008 18.4904 8.37008 18.9004 8.39008C19.3104 8.42008 19.6304 8.77007 19.6004 9.19007L18.9504 19.2601C18.8404 20.8201 18.7004 22.7501 15.2104 22.7501Z" fill="currentColor"/>
    <path d="M13.6601 17.25H10.3301C9.92008 17.25 9.58008 16.91 9.58008 16.5C9.58008 16.09 9.92008 15.75 10.3301 15.75H13.6601C14.0701 15.75 14.4101 16.09 14.4101 16.5C14.4101 16.91 14.0701 17.25 13.6601 17.25Z" fill="currentColor"/>
    <path d="M14.5 13.25H9.5C9.09 13.25 8.75 12.91 8.75 12.5C8.75 12.09 9.09 11.75 9.5 11.75H14.5C14.91 11.75 15.25 12.09 15.25 12.5C15.25 12.91 14.91 13.25 14.5 13.25Z" fill="currentColor"/>
</symbol><symbol id="down" viewBox="0 0 24 24">
    <path fill-rule="evenodd" clip-rule="evenodd" d="M2.75024 12C2.75024 17.108 6.89124 21.25 12.0002 21.25C17.1082 21.25 21.2502 17.108 21.2502 12C21.2502 6.892 17.1082 2.75 12.0002 2.75C6.89124 2.75 2.75024 6.892 2.75024 12Z" stroke="#200E32" stroke-width="1.5" stroke-linecap="round" stroke-linejoin="round"/>
    <path d="M8.52905 10.5577L12.0001 14.0437L15.4711 10.5577" stroke="#200E32" stroke-width="1.5" stroke-linecap="round" stroke-linejoin="round"/>
</symbol><symbol id="edit" viewBox="0 0 24 24">
    <path d="M15 22.75H9C3.57 22.75 1.25 20.43 1.25 15V9C1.25 3.57 3.57 1.25 9 1.25H11C11.41 1.25 11.75 1.59 11.75 2C11.75 2.41 11.41 2.75 11 2.75H9C4.39 2.75 2.75 4.39 2.75 9V15C2.75 19.61 4.39 21.25 9 21.25H15C19.61 21.25 21.25 19.61 21.25 15V13C21.25 12.59 21.59 12.25 22 12.25C22.41 12.25 22.75 12.59 22.75 13V15C22.75 20.43 20.43 22.75 15 22.75Z" fill="currentColor"/>
    <path d="M8.49935 17.6901C7.88935 17.6901 7.32935 17.4701 6.91935 17.0701C6.42935 16.5801 6.21935 15.8701 6.32935 15.1201L6.75935 12.1101C6.83935 11.5301 7.21935 10.7801 7.62935 10.3701L15.5093 2.49006C17.4993 0.500059 19.5193 0.500059 21.5093 2.49006C22.5993 3.58006 23.0893 4.69006 22.9893 5.80006C22.8993 6.70006 22.4193 7.58006 21.5093 8.48006L13.6293 16.3601C13.2193 16.7701 12.4693 17.1501 11.8893 17.2301L8.87935 17.6601C8.74935 17.6901 8.61935 17.6901 8.49935 17.6901ZM16.5693 3.55006L8.68935 11.4301C8.49935 11.6201 8.27935 12.0601 8.23935 12.3201L7.80935 15.3301C7.76935 15.6201 7.82935 15.8601 7.97935 16.0101C8.12935 16.1601 8.36935 16.2201 8.65935 16.1801L11.6693 15.7501C11.9293 15.7101 12.3793 15.4901 12.5593 15.3001L20.4393 7.42006C21.0893 6.77006 21.4293 6.19006 21.4793 5.65006C21.5393 5.00006 21.1993 4.31006 20.4393 3.54006C18.8393 1.94006 17.7393 2.39006 16.5693 3.55006Z" fill="currentColor"/>
    <path d="M19.8496 9.82978C19.7796 9.82978 19.7096 9.81978 19.6496 9.79978C17.0196 9.05978 14.9296 6.96978 14.1896 4.33978C14.0796 3.93978 14.3096 3.52978 14.7096 3.40978C15.1096 3.29978 15.5196 3.52978 15.6296 3.92978C16.2296 6.05978 17.9196 7.74978 20.0496 8.34978C20.4496 8.45978 20.6796 8.87978 20.5696 9.27978C20.4796 9.61978 20.1796 9.82978 19.8496 9.82978Z" fill="currentColor"/>
</symbol><symbol id="exit" viewBox="0 0 23 23">
    <path d="M18.57 4.428a10 10 0 1 1-14.14 0M11.499 1.5v8.889" stroke="currentColor" stroke-linecap="round" stroke-linejoin="round" stroke-width="3" fill-opacity="0"/>
</symbol><symbol id="help" viewBox="0 0 24 24">
    <path d="M17 18.4301H13L8.54999 21.39C7.88999 21.83 7 21.3601 7 20.5601V18.4301C4 18.4301 2 16.4301 2 13.4301V7.42999C2 4.42999 4 2.42999 7 2.42999H17C20 2.42999 22 4.42999 22 7.42999V13.4301C22 16.4301 20 18.4301 17 18.4301Z" stroke="currentColor" fill-opacity="0" stroke-width="1.5" stroke-miterlimit="10" stroke-linecap="round" stroke-linejoin="round"/>
    <path d="M12.0001 11.36V11.15C12.0001 10.47 12.4201 10.11 12.8401 9.82001C13.2501 9.54001 13.66 9.18002 13.66 8.52002C13.66 7.60002 12.9201 6.85999 12.0001 6.85999C11.0801 6.85999 10.3401 7.60002 10.3401 8.52002" stroke="currentColor" fill-opacity="0" stroke-width="1.5" stroke-linecap="round" stroke-linejoin="round"/>
    <path d="M11.9955 13.75H12.0045" stroke="currentColor" fill-opacity="0" stroke-width="1.5" stroke-linecap="round" stroke-linejoin="round"/>
</symbol><symbol id="invoice" viewBox="0 0 20 20">
    <path d="M13.1501 1.6665H6.85008C3.70008 1.6665 2.91675 2.50817 2.91675 5.8665V15.2498C2.91675 17.4665 4.13341 17.9915 5.60842 16.4082L5.61675 16.3998C6.30008 15.6748 7.34175 15.7332 7.93342 16.5248L8.77508 17.6498C9.45008 18.5415 10.5417 18.5415 11.2167 17.6498L12.0584 16.5248C12.6584 15.7248 13.7001 15.6665 14.3834 16.3998C15.8667 17.9832 17.0751 17.4582 17.0751 15.2415V5.8665C17.0834 2.50817 16.3001 1.6665 13.1501 1.6665ZM12.2917 8.95817H7.70842C7.36675 8.95817 7.08342 8.67484 7.08342 8.33317C7.08342 7.9915 7.36675 7.70817 7.70842 7.70817H12.2917C12.6334 7.70817 12.9167 7.9915 12.9167 8.33317C12.9167 8.67484 12.6334 8.95817 12.2917 8.95817Z" fill="currentColor"/>
</symbol><symbol id="menu" viewBox="0 0 24 24">
    <path d="M3 7H21" stroke="currentColor" stroke-width="1.5" stroke-linecap="round"/>
    <path d="M3 12H21" stroke="currentColor" stroke-width="1.5" stroke-linecap="round"/>
    <path d="M3 17H21" stroke="currentColor" stroke-width="1.5" stroke-linecap="round"/>
</symbol><symbol id="note" viewBox="0 0 24 24">
    <path d="M15 22.75H9C3.57 22.75 1.25 20.43 1.25 15V9C1.25 3.57 3.57 1.25 9 1.25H14C14.41 1.25 14.75 1.59 14.75 2C14.75 2.41 14.41 2.75 14 2.75H9C4.39 2.75 2.75 4.39 2.75 9V15C2.75 19.61 4.39 21.25 9 21.25H15C19.61 21.25 21.25 19.61 21.25 15V10C21.25 9.59 21.59 9.25 22 9.25C22.41 9.25 22.75 9.59 22.75 10V15C22.75 20.43 20.43 22.75 15 22.75Z" fill="currentColor"/>
    <path d="M22 10.75H18C14.58 10.75 13.25 9.41999 13.25 5.99999V1.99999C13.25 1.69999 13.43 1.41999 13.71 1.30999C13.99 1.18999 14.31 1.25999 14.53 1.46999L22.53 9.46999C22.74 9.67999 22.81 10.01 22.69 10.29C22.57 10.57 22.3 10.75 22 10.75ZM14.75 3.80999V5.99999C14.75 8.57999 15.42 9.24999 18 9.24999H20.19L14.75 3.80999Z" fill="currentColor"/>
</symbol><symbol id="profile" viewBox="0 0 24 24">
    <circle cx="11.5789" cy="7.27803" r="4.77803" stroke="currentColor" stroke-width="1.5" stroke-linecap="round" stroke-linejoin="round" fill-opacity="0"/>
    <path fill-rule="evenodd" clip-rule="evenodd" d="M4.00002 18.7014C3.99873 18.3655 4.07385 18.0337 4.2197 17.7311C4.67736 16.8158 5.96798 16.3307 7.03892 16.111C7.81128 15.9462 8.59431 15.836 9.38217 15.7815C10.8408 15.6533 12.3079 15.6533 13.7666 15.7815C14.5544 15.8367 15.3374 15.9468 16.1099 16.111C17.1808 16.3307 18.4714 16.77 18.9291 17.7311C19.2224 18.3479 19.2224 19.064 18.9291 19.6808C18.4714 20.6419 17.1808 21.0812 16.1099 21.2918C15.3384 21.4634 14.5551 21.5766 13.7666 21.6304C12.5794 21.7311 11.3866 21.7494 10.1968 21.6854C9.92221 21.6854 9.65677 21.6854 9.38217 21.6304C8.59663 21.5773 7.81632 21.4641 7.04807 21.2918C5.96798 21.0812 4.68652 20.6419 4.2197 19.6808C4.0746 19.3747 3.99955 19.0401 4.00002 18.7014Z" stroke="currentColor" stroke-width="1.5" stroke-linecap="round" stroke-linejoin="round" fill-opacity="0"/>
</symbol><symbol id="service" viewBox="0 0 24 24">
    <path d="M2.80408 15.477C2.80408 15.477 2.94608 17.215 2.97908 17.763C3.02308 18.498 3.30708 19.319 3.78108 19.889C4.45008 20.697 5.23808 20.982 6.29008 20.984C7.52708 20.986 16.5221 20.986 17.7591 20.984C18.8111 20.982 19.5991 20.697 20.2681 19.889C20.7421 19.319 21.0261 18.498 21.0711 17.763C21.1031 17.215 21.2451 15.477 21.2451 15.477" stroke="currentColor" stroke-width="1.5" fill-opacity="0" stroke-linecap="round" stroke-linejoin="round"/>
    <path d="M8.49597 5.32949V4.95849C8.49597 3.73849 9.48397 2.75049 10.704 2.75049H13.286C14.505 2.75049 15.494 3.73849 15.494 4.95849L15.495 5.32949" stroke="currentColor" stroke-width="1.5" stroke-linecap="round" stroke-linejoin="round"/>
    <path d="M11.995 16.6782V15.3842" stroke="currentColor" fill-opacity="0" stroke-width="1.5" stroke-linecap="round" stroke-linejoin="round"/>
    <path fill-rule="evenodd" clip-rule="evenodd" d="M2.74988 8.38912V11.8561C4.66788 13.1211 6.96588 14.0071 9.48788 14.3581C9.78988 13.2571 10.7829 12.4501 11.9899 12.4501C13.1779 12.4501 14.1909 13.2571 14.4729 14.3681C17.0049 14.0171 19.3119 13.1311 21.2399 11.8561V8.38912C21.2399 6.69512 19.8769 5.33112 18.1829 5.33112H5.81688C4.12288 5.33112 2.74988 6.69512 2.74988 8.38912Z" stroke="currentColor" stroke-width="1.5" stroke-linecap="round" fill-opacity="0" stroke-linejoin="round"/>
</symbol><symbol id="shop" viewBox="0 0 24 24">
    <path fill-rule="evenodd" clip-rule="evenodd" fill-opacity="0" d="M7.42233 19.8203C7.84433 19.8203 8.18733 20.1633 8.18733 20.5853C8.18733 21.0073 7.84433 21.3493 7.42233 21.3493C7.00033 21.3493 6.65833 21.0073 6.65833 20.5853C6.65833 20.1633 7.00033 19.8203 7.42233 19.8203Z" stroke="currentColor" stroke-width="1.5" stroke-linecap="round" stroke-linejoin="round"/>
    <path fill-rule="evenodd" clip-rule="evenodd" d="M18.6747 19.8203C19.0967 19.8203 19.4397 20.1633 19.4397 20.5853C19.4397 21.0073 19.0967 21.3493 18.6747 21.3493C18.2527 21.3493 17.9097 21.0073 17.9097 20.5853C17.9097 20.1633 18.2527 19.8203 18.6747 19.8203Z" stroke="currentColor" stroke-width="1.5" stroke-linecap="round" stroke-linejoin="round" fill-opacity="0"/>
    <path d="M2.74988 3.25L4.82988 3.61L5.79288 15.083C5.87088 16.018 6.65188 16.736 7.58988 16.736H18.5019C19.3979 16.736 20.1579 16.078 20.2869 15.19L21.2359 8.632C21.3529 7.823 20.7259 7.099 19.9089 7.099H5.16388" stroke="currentColor" stroke-width="1.5" stroke-linecap="round" stroke-linejoin="round" fill-opacity="0"/>
    <path d="M14.1254 10.795H16.8984" stroke="currentColor" stroke-width="1.5" stroke-linecap="round" stroke-linejoin="round" fill-opacity="0"/>
</symbol><symbol id="task" viewBox="0 0 24 24">
    <path d="M15.8554 8.12111L10.1916 13.8227L3.56064 9.74147C2.69176 9.20657 2.86787 7.88697 3.8467 7.60287L19.5022 3.04743C20.3925 2.78978 21.2156 3.62446 20.949 4.51889L16.304 20.1582C16.013 21.1369 14.7082 21.3064 14.1809 20.4325L10.1916 13.8227" stroke="currentColor" fill-opacity="0" stroke-width="1.5" stroke-linecap="round" stroke-linejoin="round"/>
</symbol><symbol id="wallet" viewBox="0 0 24 24">
    <path d="M21.6389 14.3958H17.5906C16.1042 14.3949 14.8993 13.191 14.8984 11.7045C14.8984 10.2181 16.1042 9.01416 17.5906 9.01324H21.6389" stroke="currentColor" fill-opacity="0" stroke-width="1.5" stroke-linecap="round" stroke-linejoin="round"/>
    <path d="M18.0485 11.6429H17.7369" stroke="currentColor" fill-opacity="0" stroke-width="1.5" stroke-linecap="round" stroke-linejoin="round"/>
    <path fill-rule="evenodd" clip-rule="evenodd" d="M7.74766 3H16.3911C19.2892 3 21.6388 5.34951 21.6388 8.24766V15.4247C21.6388 18.3229 19.2892 20.6724 16.3911 20.6724H7.74766C4.84951 20.6724 2.5 18.3229 2.5 15.4247V8.24766C2.5 5.34951 4.84951 3 7.74766 3Z" stroke="currentColor" fill-opacity="0" stroke-width="1.5" stroke-linecap="round" stroke-linejoin="round"/>
    <path d="M7.03564 7.53814H12.4346" stroke="currentColor" fill-opacity="0" stroke-width="1.5" stroke-linecap="round" stroke-linejoin="round"/>
</symbol><symbol id="whatsapp_outline" viewBox="0 0 24 24">
    <path fill-rule="evenodd" clip-rule="evenodd" d="M18.3779 5.62793C16.6846 3.93457 14.4346 3 12.0381 3C7.09863 3 3.07617 7.01953 3.07617 11.959C3.07324 13.5381 3.48633 15.0791 4.27148 16.4385L3 21.082L7.75195 19.834C9.05859 20.5488 10.5352 20.9238 12.0352 20.9268H12.0381C16.9775 20.9268 20.9971 16.9072 21 11.9648C21 9.57129 20.0684 7.32129 18.3779 5.62793ZM12.0381 19.4121H12.0352C10.6992 19.4121 9.38672 19.0518 8.24414 18.375L7.97168 18.2139L5.15039 18.9521L5.90332 16.2041L5.72754 15.9229C4.98047 14.7363 4.58789 13.3652 4.58789 11.959C4.58789 7.85449 7.93066 4.51465 12.041 4.51465C14.0303 4.51465 15.8994 5.29102 17.3057 6.69727C18.7119 8.10645 19.4854 9.97559 19.4854 11.9648C19.4854 16.0723 16.1426 19.4121 12.0381 19.4121ZM16.1221 13.834C15.8994 13.7227 14.7979 13.1807 14.5928 13.1074C14.3877 13.0312 14.2383 12.9961 14.0889 13.2188C13.9395 13.4443 13.5117 13.9482 13.3799 14.0977C13.251 14.2441 13.1191 14.2646 12.8965 14.1533C12.6709 14.042 11.9502 13.8047 11.0947 13.04C10.4297 12.4482 9.97852 11.7129 9.84961 11.4902C9.71777 11.2646 9.83496 11.1445 9.94629 11.0332C10.0488 10.9336 10.1719 10.7725 10.2832 10.6406C10.3945 10.5117 10.4326 10.418 10.5088 10.2686C10.582 10.1191 10.5439 9.9873 10.4883 9.87598C10.4326 9.76465 9.98438 8.66016 9.79688 8.21191C9.61523 7.77539 9.43066 7.83691 9.29297 7.82812C9.16406 7.82227 9.01465 7.82227 8.86524 7.82227C8.71582 7.82227 8.47266 7.87793 8.26758 8.10352C8.0625 8.32617 7.48535 8.86816 7.48535 9.96973C7.48535 11.0713 8.28809 12.1377 8.39941 12.2871C8.51074 12.4336 9.97852 14.6953 12.2256 15.665C12.7588 15.8965 13.1748 16.0342 13.5 16.1367C14.0361 16.3066 14.5254 16.2832 14.9121 16.2275C15.3428 16.1631 16.2363 15.6855 16.4238 15.1611C16.6084 14.6396 16.6084 14.1914 16.5527 14.0977C16.4971 14.0039 16.3477 13.9482 16.1221 13.834Z" fill="currentColor"/>
</symbol></svg>