<?xml version="1.0" encoding="UTF-8"?><!DOCTYPE svg PUBLIC "-//W3C//DTD SVG 1.1//EN" "http://www.w3.org/Graphics/SVG/1.1/DTD/svg11.dtd"><svg xmlns="http://www.w3.org/2000/svg" xmlns:xlink="http://www.w3.org/1999/xlink"><defs>
        <clipPath id="clip0_216_31562">
            <rect width="24" height="24" fill="white" transform="translate(0.396484)"/>
        </clipPath>
    
        <clipPath id="clip0_216_31548">
            <rect width="21.9803" height="21.9803" fill="white" transform="translate(0.812012 0.99028)"/>
        </clipPath>
    </defs><symbol id="add" viewBox="0 0 24 24">
    <path d="M18 12.75H6C5.59 12.75 5.25 12.41 5.25 12C5.25 11.59 5.59 11.25 6 11.25H18C18.41 11.25 18.75 11.59 18.75 12C18.75 12.41 18.41 12.75 18 12.75Z" fill="currentColor"/>
    <path d="M12 18.75C11.59 18.75 11.25 18.41 11.25 18V6C11.25 5.59 11.59 5.25 12 5.25C12.41 5.25 12.75 5.59 12.75 6V18C12.75 18.41 12.41 18.75 12 18.75Z" fill="currentColor"/>
</symbol><symbol id="arrowForward" viewBox="0 0 24 24">
    <path d="M11.1161 6.88388C10.628 6.39573 10.628 5.60427 11.1161 5.11612C11.6043 4.62796 12.3957 4.62796 12.8839 5.11612L11.1161 6.88388ZM18 12L18.8839 11.1161C19.1183 11.3505 19.25 11.6685 19.25 12C19.25 12.3315 19.1183 12.6495 18.8839 12.8839L18 12ZM12.8839 18.8839C12.3957 19.372 11.6043 19.372 11.1161 18.8839C10.628 18.3957 10.628 17.6043 11.1161 17.1161L12.8839 18.8839ZM12.8839 5.11612L18.8839 11.1161L17.1161 12.8839L11.1161 6.88388L12.8839 5.11612ZM18.8839 12.8839L12.8839 18.8839L11.1161 17.1161L17.1161 11.1161L18.8839 12.8839Z" fill="currentColor"/>
    <path d="M6 12L17 12" stroke="currentColor" stroke-width="2.5" stroke-linecap="round" stroke-linejoin="round"/>
</symbol><symbol id="back" viewBox="0 0 24 24">
    <path fill-rule="evenodd" clip-rule="evenodd" d="M22 12.0002C22 6.47736 17.5225 2.00024 12 2.00024C6.47745 2.00024 2 6.47736 2 12.0002C2 17.5225 6.47779 22.0002 12 22.0002C17.5222 22.0002 22 17.5225 22 12.0002ZM20.5 12.0002C20.5 16.694 16.6938 20.5002 12 20.5002C7.30621 20.5002 3.5 16.694 3.5 12.0002C3.5 7.30582 7.30586 3.50024 12 3.50024C16.6941 3.50024 20.5 7.30582 20.5 12.0002ZM14.0443 8.97655C14.2628 8.68341 14.2395 8.2667 13.9738 7.99986C13.6815 7.70633 13.2066 7.70531 12.9131 7.99757L9.42711 11.4686L9.35412 11.5528C9.13513 11.8469 9.15946 12.265 9.42711 12.5315L12.9131 16.0025L12.9974 16.075C13.2915 16.2922 13.7081 16.2671 13.9738 16.0002L14.0462 15.916C14.2634 15.6219 14.2383 15.2053 13.9715 14.9396L11.02 11.999L13.9715 9.06052L14.0443 8.97655Z" fill="currentColor"/>
</symbol><symbol id="biz" viewBox="0 0 25 24">
    <g clip-path="url(#clip0_216_31562)">
        <path d="M12.3965 7V5C12.3965 3.9 11.4965 3 10.3965 3H4.39648C3.29648 3 2.39648 3.9 2.39648 5V19C2.39648 20.1 3.29648 21 4.39648 21H20.3965C21.4965 21 22.3965 20.1 22.3965 19V9C22.3965 7.9 21.4965 7 20.3965 7H12.3965ZM6.39648 19H4.39648V17H6.39648V19ZM6.39648 15H4.39648V13H6.39648V15ZM6.39648 11H4.39648V9H6.39648V11ZM6.39648 7H4.39648V5H6.39648V7ZM10.3965 19H8.39648V17H10.3965V19ZM10.3965 15H8.39648V13H10.3965V15ZM10.3965 11H8.39648V9H10.3965V11ZM10.3965 7H8.39648V5H10.3965V7ZM19.3965 19H12.3965V17H14.3965V15H12.3965V13H14.3965V11H12.3965V9H19.3965C19.9465 9 20.3965 9.45 20.3965 10V18C20.3965 18.55 19.9465 19 19.3965 19ZM18.3965 11H16.3965V13H18.3965V11ZM18.3965 15H16.3965V17H18.3965V15Z" fill="white"/>
    </g>
    
</symbol><symbol id="check" viewBox="0 0 24 24">
    <path d="M23.0246 11.9999C23.0246 5.91091 18.0885 0.974854 11.9996 0.974854C5.91067 0.974854 0.974609 5.91091 0.974609 11.9999C0.974609 18.0888 5.91067 23.0249 11.9996 23.0249C18.0885 23.0249 23.0246 18.0888 23.0246 11.9999Z" stroke="white" stroke-width="1.5" stroke-miterlimit="10"/>
    <path d="M16.0546 9.34835L10.7513 14.6517L8.09961 12" stroke="white" stroke-width="1.5" stroke-linecap="round" stroke-linejoin="round"/>
</symbol><symbol id="clipboard" viewBox="0 0 24 24">
    <path d="M11.25 2.25C10.3066 2.25 9.63574 2.91797 9.30469 3.75H3.75V21H9.75V22.5H20.25V10.5H18.75V3.75H13.1953C12.8643 2.91797 12.1934 2.25 11.25 2.25ZM11.25 3.75C11.666 3.75 12 4.08398 12 4.5V5.25H14.25V6.75H8.25V5.25H10.5V4.5C10.5 4.08398 10.834 3.75 11.25 3.75ZM5.25 5.25H6.75V8.25H15.75V5.25H17.25V10.5H9.75V19.5H5.25V5.25ZM11.25 12H18.75V21H11.25V12Z" fill="currentColor"/>
</symbol><symbol id="close" viewBox="0 0 32 32">
    <path d="M9.65723 10.3438L20.9709 21.6575" stroke="currentColor" stroke-width="1.5" stroke-linecap="round" stroke-linejoin="round"/>
    <path d="M9.65723 21.6562L20.9709 10.3425" stroke="currentColor" stroke-width="1.5" stroke-linecap="round" stroke-linejoin="round"/>
</symbol><symbol id="dashboard" viewBox="0 0 24 24">
    <path fill-rule="evenodd" clip-rule="evenodd" d="M16.2856 2H19.5522C20.9037 2 22.0001 3.1059 22.0001 4.47018V7.7641C22.0001 9.12735 20.9037 10.2343 19.5522 10.2343H16.2856C14.933 10.2343 13.8367 9.12735 13.8367 7.7641V4.47018C13.8367 3.1059 14.933 2 16.2856 2Z" stroke="currentColor" fill-opacity="0" stroke-width="1.5" stroke-linecap="round" stroke-linejoin="round"/>
    <path fill-rule="evenodd" clip-rule="evenodd" d="M4.44892 2H7.71449C9.06703 2 10.1634 3.1059 10.1634 4.47018V7.7641C10.1634 9.12735 9.06703 10.2343 7.71449 10.2343H4.44892C3.09638 10.2343 2 9.12735 2 7.7641V4.47018C2 3.1059 3.09638 2 4.44892 2Z" stroke="currentColor" fill-opacity="0" stroke-width="1.5" stroke-linecap="round" stroke-linejoin="round"/>
    <path fill-rule="evenodd" clip-rule="evenodd" d="M4.44892 13.7657H7.71449C9.06703 13.7657 10.1634 14.8716 10.1634 16.2369V19.5298C10.1634 20.8941 9.06703 22 7.71449 22H4.44892C3.09638 22 2 20.8941 2 19.5298V16.2369C2 14.8716 3.09638 13.7657 4.44892 13.7657Z" stroke="currentColor" fill-opacity="0" stroke-width="1.5" stroke-linecap="round" stroke-linejoin="round"/>
    <path fill-rule="evenodd" clip-rule="evenodd" d="M16.2856 13.7657H19.5522C20.9037 13.7657 22.0001 14.8716 22.0001 16.2369V19.5298C22.0001 20.8941 20.9037 22 19.5522 22H16.2856C14.933 22 13.8367 20.8941 13.8367 19.5298V16.2369C13.8367 14.8716 14.933 13.7657 16.2856 13.7657Z" stroke="currentColor" fill-opacity="0" stroke-width="1.5" stroke-linecap="round" stroke-linejoin="round"/>
</symbol><symbol id="delete" viewBox="0 0 24 24">
    <path d="M19.325 9.4682C19.325 9.4682 18.782 16.2032 18.467 19.0402C18.317 20.3952 17.48 21.1892 16.109 21.2142C13.5 21.2612 10.888 21.2642 8.28003 21.2092C6.96103 21.1822 6.13803 20.3782 5.99103 19.0472C5.67403 16.1852 5.13403 9.4682 5.13403 9.4682" stroke="currentColor" stroke-width="1.5" stroke-linecap="round" stroke-linejoin="round" fill-opacity="0"/>
    <path d="M20.7082 6.23969H3.75024" stroke="currentColor" stroke-width="1.5" stroke-linecap="round" stroke-linejoin="round" fill-opacity="0"/>
    <path d="M17.4406 6.23967C16.6556 6.23967 15.9796 5.68467 15.8256 4.91567L15.5826 3.69967C15.4326 3.13867 14.9246 2.75067 14.3456 2.75067H10.1126C9.53358 2.75067 9.02558 3.13867 8.87558 3.69967L8.63258 4.91567C8.47858 5.68467 7.80258 6.23967 7.01758 6.23967" stroke="currentColor" stroke-width="1.5" stroke-linecap="round" stroke-linejoin="round" fill-opacity="0"/>
</symbol><symbol id="down" viewBox="0 0 24 24">
    <path fill-rule="evenodd" clip-rule="evenodd" d="M2.75024 12C2.75024 17.108 6.89124 21.25 12.0002 21.25C17.1082 21.25 21.2502 17.108 21.2502 12C21.2502 6.892 17.1082 2.75 12.0002 2.75C6.89124 2.75 2.75024 6.892 2.75024 12Z" stroke="currentColor" stroke-width="1.5" stroke-linecap="round" stroke-linejoin="round" fill-opacity="0"/>
    <path d="M8.52905 10.5577L12.0001 14.0437L15.4711 10.5577" stroke="currentColor" stroke-width="1.5" stroke-linecap="round" stroke-linejoin="round" fill-opacity="0"/>
</symbol><symbol id="edit" viewBox="0 0 24 24">
    <path d="M15 22.75H9C3.57 22.75 1.25 20.43 1.25 15V9C1.25 3.57 3.57 1.25 9 1.25H11C11.41 1.25 11.75 1.59 11.75 2C11.75 2.41 11.41 2.75 11 2.75H9C4.39 2.75 2.75 4.39 2.75 9V15C2.75 19.61 4.39 21.25 9 21.25H15C19.61 21.25 21.25 19.61 21.25 15V13C21.25 12.59 21.59 12.25 22 12.25C22.41 12.25 22.75 12.59 22.75 13V15C22.75 20.43 20.43 22.75 15 22.75Z" fill="currentColor"/>
    <path d="M8.49935 17.6901C7.88935 17.6901 7.32935 17.4701 6.91935 17.0701C6.42935 16.5801 6.21935 15.8701 6.32935 15.1201L6.75935 12.1101C6.83935 11.5301 7.21935 10.7801 7.62935 10.3701L15.5093 2.49006C17.4993 0.500059 19.5193 0.500059 21.5093 2.49006C22.5993 3.58006 23.0893 4.69006 22.9893 5.80006C22.8993 6.70006 22.4193 7.58006 21.5093 8.48006L13.6293 16.3601C13.2193 16.7701 12.4693 17.1501 11.8893 17.2301L8.87935 17.6601C8.74935 17.6901 8.61935 17.6901 8.49935 17.6901ZM16.5693 3.55006L8.68935 11.4301C8.49935 11.6201 8.27935 12.0601 8.23935 12.3201L7.80935 15.3301C7.76935 15.6201 7.82935 15.8601 7.97935 16.0101C8.12935 16.1601 8.36935 16.2201 8.65935 16.1801L11.6693 15.7501C11.9293 15.7101 12.3793 15.4901 12.5593 15.3001L20.4393 7.42006C21.0893 6.77006 21.4293 6.19006 21.4793 5.65006C21.5393 5.00006 21.1993 4.31006 20.4393 3.54006C18.8393 1.94006 17.7393 2.39006 16.5693 3.55006Z" fill="currentColor"/>
    <path d="M19.8496 9.82978C19.7796 9.82978 19.7096 9.81978 19.6496 9.79978C17.0196 9.05978 14.9296 6.96978 14.1896 4.33978C14.0796 3.93978 14.3096 3.52978 14.7096 3.40978C15.1096 3.29978 15.5196 3.52978 15.6296 3.92978C16.2296 6.05978 17.9196 7.74978 20.0496 8.34978C20.4496 8.45978 20.6796 8.87978 20.5696 9.27978C20.4796 9.61978 20.1796 9.82978 19.8496 9.82978Z" fill="currentColor"/>
</symbol><symbol id="exit" viewBox="0 0 23 23">
    <path d="M18.57 4.428a10 10 0 1 1-14.14 0M11.499 1.5v8.889" stroke="currentColor" stroke-linecap="round" stroke-linejoin="round" stroke-width="3" fill-opacity="0"/>
</symbol><symbol id="flag" viewBox="0 0 24 24">
    <path d="M6.75 3C5.5095 3 4.5 4.0095 4.5 5.25C4.5 6.22621 5.12906 7.0516 6 7.3623V8.47852V17.4053V20.2676C6 20.6726 6.32742 21 6.73242 21H6.76758C7.17258 21 7.5 20.6726 7.5 20.2676V16.6714C7.75103 16.3798 8.35382 15.7852 10.084 15.7852C11.002 15.7852 11.7528 16.1053 12.5493 16.4443C13.3271 16.7758 14.1314 17.1182 15.0659 17.1182C16.8352 17.1182 18.037 16.1885 18.5508 15.791L18.665 15.7046C19.0783 15.4053 19.5 14.997 19.5 14.25V8.00684C19.5 7.32584 18.9164 6.75 18.2241 6.75C17.8529 6.75 17.5803 6.96495 17.2061 7.2627C16.7096 7.6557 15.9607 8.25 15.0659 8.25C14.4547 8.25 13.8583 7.9648 13.166 7.6333C12.3028 7.2193 11.3238 6.75 10.0825 6.75C9.23119 6.75 8.56627 6.89125 8.03467 7.09277C8.6168 6.68564 9 6.01259 9 5.25C9 4.0095 7.9905 3 6.75 3ZM6.75 4.5C7.164 4.5 7.5 4.83675 7.5 5.25C7.5 5.66325 7.164 6 6.75 6C6.336 6 6 5.66325 6 5.25C6 4.83675 6.336 4.5 6.75 4.5ZM10.0825 8.25C10.984 8.25 11.7288 8.60735 12.5186 8.98535C13.3023 9.36185 14.1134 9.75 15.0659 9.75C16.3822 9.75 17.3685 9.04086 17.9985 8.54736V14.2998C17.9978 14.3028 17.9647 14.3589 17.7817 14.4917L17.6323 14.606C17.2071 14.9345 16.3222 15.6182 15.0659 15.6182C14.4374 15.6182 13.835 15.3622 13.1367 15.0645C12.2795 14.6985 11.3073 14.2837 10.0825 14.2837C8.91852 14.2837 8.0895 14.5185 7.5 14.8125V9.271C7.75875 8.929 8.34927 8.25 10.0825 8.25Z" fill="currentColor"/>
</symbol><symbol id="hand_shake" viewBox="0 0 24 24">
    <path d="M14.4844 5.22664C14.0684 5.22957 13.6553 5.25008 13.2188 5.36727C12.7822 5.48446 12.3457 5.67196 11.8828 5.97664C11.3086 5.63973 10.752 5.36141 10.2188 5.29696C9.55664 5.21493 8.94141 5.25887 8.22656 5.27352C7.37988 5.2911 6.82617 5.72469 5.92969 6.07039C5.0332 6.4161 3.87891 6.75008 2.25 6.75008H1.5V13.9688L1.92188 14.1798L3.30469 14.8595L8.22656 20.3438L8.25 20.3673C8.8125 20.9239 9.57129 21.0616 10.2422 21.0235C10.9131 20.9854 11.543 20.7891 12.0469 20.4845C13.1543 19.8165 16.1719 17.7188 16.1719 17.7188L16.2422 17.672L16.2891 17.6251C16.6465 17.2706 16.8252 16.837 16.9453 16.3829L19.8281 14.9298L21.9844 14.2032L22.5 14.0391V6.75008H21.75C20.124 6.75008 18.9668 6.39852 18.0703 6.04696C17.1738 5.69539 16.6289 5.26766 15.7734 5.25008C15.3164 5.24129 14.9004 5.22371 14.4844 5.22664ZM14.5078 6.72664C14.8447 6.72371 15.2344 6.74129 15.7266 6.75008C15.8057 6.75301 16.5264 7.06063 17.5312 7.45321C18.3809 7.78719 19.5615 8.08309 21 8.17977V12.961L19.2656 13.547H19.2188L19.1719 13.5704L16.8984 14.7188C16.7725 14.3761 16.5996 14.0597 16.3359 13.7813L16.2891 13.711L13.1016 9.79696L12.6328 9.21102L12.0469 9.67977L10.0312 11.3204C9.35449 11.7891 8.80664 11.6544 8.25 11.3907C8.08887 11.3145 8.09766 11.2911 7.96875 11.2032L11.3906 8.36727L11.4375 8.32039C12.4541 7.31258 13.0781 6.96395 13.6172 6.82039C13.8867 6.74715 14.1709 6.72957 14.5078 6.72664ZM9.28125 6.75008C9.56836 6.74422 9.80859 6.74715 10.0312 6.77352C10.2275 6.79696 10.4502 6.96395 10.6406 7.03133C10.5645 7.10164 10.5088 7.14266 10.4297 7.21883C10.4121 7.23641 10.4004 7.24813 10.3828 7.26571L6.28125 10.6641L5.64844 11.1798L6.21094 11.7657C6.21094 11.7657 6.75293 12.3516 7.59375 12.7501C8.43457 13.1485 9.73242 13.3741 10.8984 12.5626L10.9453 12.5157L12.3984 11.3204L15.1641 14.7188L15.1875 14.7657L15.2109 14.7891C15.7061 15.2784 15.6943 16.0489 15.2109 16.547C15.2051 16.5528 15.2168 16.5645 15.2109 16.5704C15.2051 16.5733 15.1055 16.6319 15.0938 16.6407L14.1094 15.3048L12.8906 16.1954L13.8516 17.4845C13.4619 17.7481 13.2861 17.8858 12.8672 18.1641L11.8594 16.8048L10.6406 17.6954L11.6016 18.9845C11.5166 19.0372 11.3408 19.1544 11.2734 19.1954C11.0361 19.3389 10.5791 19.5001 10.1719 19.5235C9.78809 19.544 9.49512 19.4561 9.35156 19.336L9.32812 19.3126L4.3125 13.7579L4.21875 13.6407L3 13.0313V8.17977C4.43262 8.08602 5.62207 7.80184 6.46875 7.47664C7.4707 7.09285 8.18555 6.77645 8.27344 6.77352C8.65723 6.76473 8.99414 6.75594 9.28125 6.75008Z" fill="currentColor"/>
</symbol><symbol id="help" viewBox="0 0 24 24">
    <path d="M17 18.4301H13L8.54999 21.39C7.88999 21.83 7 21.3601 7 20.5601V18.4301C4 18.4301 2 16.4301 2 13.4301V7.42999C2 4.42999 4 2.42999 7 2.42999H17C20 2.42999 22 4.42999 22 7.42999V13.4301C22 16.4301 20 18.4301 17 18.4301Z" stroke="currentColor" fill-opacity="0" stroke-width="1.5" stroke-miterlimit="10" stroke-linecap="round" stroke-linejoin="round"/>
    <path d="M12.0001 11.36V11.15C12.0001 10.47 12.4201 10.11 12.8401 9.82001C13.2501 9.54001 13.66 9.18002 13.66 8.52002C13.66 7.60002 12.9201 6.85999 12.0001 6.85999C11.0801 6.85999 10.3401 7.60002 10.3401 8.52002" stroke="currentColor" fill-opacity="0" stroke-width="1.5" stroke-linecap="round" stroke-linejoin="round"/>
    <path d="M11.9955 13.75H12.0045" stroke="currentColor" fill-opacity="0" stroke-width="1.5" stroke-linecap="round" stroke-linejoin="round"/>
</symbol><symbol id="info" viewBox="0 0 24 24">
    <path d="M12 22C17.5 22 22 17.5 22 12C22 6.5 17.5 2 12 2C6.5 2 2 6.5 2 12C2 17.5 6.5 22 12 22Z" stroke="currentColor" stroke-width="1.5" stroke-linecap="round" stroke-linejoin="round" fill-opacity="0"/>
    <path d="M12 8V13" stroke="currentColor" stroke-width="1.5" stroke-linecap="round" stroke-linejoin="round" fill-opacity="0"/>
    <path d="M11.9945 16H12.0035" stroke="currentColor" stroke-width="2" stroke-linecap="round" stroke-linejoin="round" fill-opacity="0"/>
</symbol><symbol id="invoice" viewBox="0 0 20 20">
    <path d="M13.1501 1.6665H6.85008C3.70008 1.6665 2.91675 2.50817 2.91675 5.8665V15.2498C2.91675 17.4665 4.13341 17.9915 5.60842 16.4082L5.61675 16.3998C6.30008 15.6748 7.34175 15.7332 7.93342 16.5248L8.77508 17.6498C9.45008 18.5415 10.5417 18.5415 11.2167 17.6498L12.0584 16.5248C12.6584 15.7248 13.7001 15.6665 14.3834 16.3998C15.8667 17.9832 17.0751 17.4582 17.0751 15.2415V5.8665C17.0834 2.50817 16.3001 1.6665 13.1501 1.6665ZM12.2917 8.95817H7.70842C7.36675 8.95817 7.08342 8.67484 7.08342 8.33317C7.08342 7.9915 7.36675 7.70817 7.70842 7.70817H12.2917C12.6334 7.70817 12.9167 7.9915 12.9167 8.33317C12.9167 8.67484 12.6334 8.95817 12.2917 8.95817Z" fill="currentColor"/>
</symbol><symbol id="menu" viewBox="0 0 24 24">
    <path d="M3 7H21" stroke="currentColor" stroke-width="1.5" stroke-linecap="round"/>
    <path d="M3 12H21" stroke="currentColor" stroke-width="1.5" stroke-linecap="round"/>
    <path d="M3 17H21" stroke="currentColor" stroke-width="1.5" stroke-linecap="round"/>
</symbol><symbol id="note" viewBox="0 0 24 24">
    <path d="M15 22.75H9C3.57 22.75 1.25 20.43 1.25 15V9C1.25 3.57 3.57 1.25 9 1.25H14C14.41 1.25 14.75 1.59 14.75 2C14.75 2.41 14.41 2.75 14 2.75H9C4.39 2.75 2.75 4.39 2.75 9V15C2.75 19.61 4.39 21.25 9 21.25H15C19.61 21.25 21.25 19.61 21.25 15V10C21.25 9.59 21.59 9.25 22 9.25C22.41 9.25 22.75 9.59 22.75 10V15C22.75 20.43 20.43 22.75 15 22.75Z" fill="currentColor"/>
    <path d="M22 10.75H18C14.58 10.75 13.25 9.41999 13.25 5.99999V1.99999C13.25 1.69999 13.43 1.41999 13.71 1.30999C13.99 1.18999 14.31 1.25999 14.53 1.46999L22.53 9.46999C22.74 9.67999 22.81 10.01 22.69 10.29C22.57 10.57 22.3 10.75 22 10.75ZM14.75 3.80999V5.99999C14.75 8.57999 15.42 9.24999 18 9.24999H20.19L14.75 3.80999Z" fill="currentColor"/>
</symbol><symbol id="post" viewBox="0 0 23 23">
    <g clip-path="url(#clip0_216_31548)">
        <path d="M17.2977 11.9805C16.794 11.9805 16.3819 12.3926 16.3819 12.8963V17.6771C16.3819 18.1808 15.9698 18.5929 15.4661 18.5929H6.3076C5.80388 18.5929 5.39175 18.1808 5.39175 17.6771V8.31712C5.39175 7.8134 5.80388 7.40127 6.3076 7.40127H10.8868C11.3905 7.40127 11.8027 6.98914 11.8027 6.48543C11.8027 5.98171 11.3905 5.56958 10.8868 5.56958H5.39175C4.38432 5.56958 3.56006 6.39384 3.56006 7.40127V18.3914C3.56006 19.3989 4.38432 20.2231 5.39175 20.2231H16.3819C17.3893 20.2231 18.2136 19.3989 18.2136 18.3914V12.8963C18.2136 12.3926 17.8015 11.9805 17.2977 11.9805Z" fill="white"/>
        <path d="M20.0625 5.56967H18.2125V3.71966C18.2125 3.2251 17.8096 2.82213 17.315 2.82213H17.2875C16.7838 2.82213 16.3808 3.2251 16.3808 3.71966V5.56967H14.54C14.0454 5.56967 13.6425 5.97264 13.6333 6.4672V6.49467C13.6333 6.99839 14.0363 7.40136 14.54 7.40136H16.3808V9.24221C16.3808 9.73677 16.7838 10.1489 17.2875 10.1397H17.315C17.8096 10.1397 18.2125 9.73677 18.2125 9.24221V7.40136H20.0625C20.5571 7.40136 20.9601 6.99839 20.9601 6.50383V6.4672C20.9601 5.97264 20.5571 5.56967 20.0625 5.56967Z" fill="white"/>
        <path d="M13.6336 9.23267H8.1385C7.63479 9.23267 7.22266 9.6448 7.22266 10.1485C7.22266 10.6522 7.63479 11.0644 8.1385 11.0644H13.6336C14.1373 11.0644 14.5494 10.6522 14.5494 10.1485C14.5494 9.6448 14.1373 9.23267 13.6336 9.23267Z" fill="white"/>
        <path d="M13.6336 11.9806H8.1385C7.63479 11.9806 7.22266 12.3928 7.22266 12.8965C7.22266 13.4002 7.63479 13.8123 8.1385 13.8123H13.6336C14.1373 13.8123 14.5494 13.4002 14.5494 12.8965C14.5494 12.3928 14.1373 11.9806 13.6336 11.9806Z" fill="white"/>
        <path d="M13.6336 14.7281H8.1385C7.63479 14.7281 7.22266 15.1402 7.22266 15.6439C7.22266 16.1476 7.63479 16.5598 8.1385 16.5598H13.6336C14.1373 16.5598 14.5494 16.1476 14.5494 15.6439C14.5494 15.1402 14.1373 14.7281 13.6336 14.7281Z" fill="white"/>
    </g>
    
</symbol><symbol id="profile" viewBox="0 0 24 24">
    <circle cx="11.5789" cy="7.27803" r="4.77803" stroke="currentColor" stroke-width="1.5" stroke-linecap="round" stroke-linejoin="round" fill-opacity="0"/>
    <path fill-rule="evenodd" clip-rule="evenodd" d="M4.00002 18.7014C3.99873 18.3655 4.07385 18.0337 4.2197 17.7311C4.67736 16.8158 5.96798 16.3307 7.03892 16.111C7.81128 15.9462 8.59431 15.836 9.38217 15.7815C10.8408 15.6533 12.3079 15.6533 13.7666 15.7815C14.5544 15.8367 15.3374 15.9468 16.1099 16.111C17.1808 16.3307 18.4714 16.77 18.9291 17.7311C19.2224 18.3479 19.2224 19.064 18.9291 19.6808C18.4714 20.6419 17.1808 21.0812 16.1099 21.2918C15.3384 21.4634 14.5551 21.5766 13.7666 21.6304C12.5794 21.7311 11.3866 21.7494 10.1968 21.6854C9.92221 21.6854 9.65677 21.6854 9.38217 21.6304C8.59663 21.5773 7.81632 21.4641 7.04807 21.2918C5.96798 21.0812 4.68652 20.6419 4.2197 19.6808C4.0746 19.3747 3.99955 19.0401 4.00002 18.7014Z" stroke="currentColor" stroke-width="1.5" stroke-linecap="round" stroke-linejoin="round" fill-opacity="0"/>
</symbol><symbol id="search" viewBox="0 0 16 16">
    <path d="M6.72075 11.7814H6.72079C7.72922 11.7811 8.71436 11.484 9.55396 10.9285L12.8441 14.2195C12.9411 14.3197 13.057 14.3997 13.1852 14.4547C13.3137 14.5099 13.4518 14.539 13.5917 14.5402C13.7315 14.5414 13.8702 14.5147 13.9996 14.4618C14.1291 14.4088 14.2467 14.3306 14.3456 14.2317C14.4445 14.1328 14.5227 14.0152 14.5756 13.8858C14.6286 13.7564 14.6553 13.6177 14.654 13.4778C14.6528 13.338 14.6237 13.1998 14.5686 13.0713C14.5135 12.9432 14.4336 12.8273 14.3334 12.7303L11.0432 9.4392C11.5982 8.59976 11.895 7.61496 11.8953 6.60694V6.6069C11.8953 3.75968 9.56797 1.43237 6.72075 1.43237C3.87353 1.43237 1.54622 3.75968 1.54622 6.6069C1.54622 9.45412 3.87353 11.7814 6.72075 11.7814ZM6.72075 2.85193C7.71663 2.85193 8.6717 3.24754 9.3759 3.95174C10.0801 4.65593 10.4757 5.61102 10.4757 6.6069C10.4757 7.60278 10.0801 8.55787 9.3759 9.26207C8.6717 9.96626 7.71663 10.3619 6.72075 10.3619C5.72487 10.3619 4.76979 9.96626 4.0656 9.26207C3.3614 8.55787 2.96578 7.60278 2.96578 6.6069C2.96578 5.61102 3.3614 4.65593 4.0656 3.95174C4.76979 3.24754 5.72487 2.85193 6.72075 2.85193Z" fill="white" stroke="white" stroke-width="0.274754"/>
</symbol><symbol id="service" viewBox="0 0 24 24">
    <path d="M2.80408 15.477C2.80408 15.477 2.94608 17.215 2.97908 17.763C3.02308 18.498 3.30708 19.319 3.78108 19.889C4.45008 20.697 5.23808 20.982 6.29008 20.984C7.52708 20.986 16.5221 20.986 17.7591 20.984C18.8111 20.982 19.5991 20.697 20.2681 19.889C20.7421 19.319 21.0261 18.498 21.0711 17.763C21.1031 17.215 21.2451 15.477 21.2451 15.477" stroke="currentColor" stroke-width="1.5" fill-opacity="0" stroke-linecap="round" stroke-linejoin="round"/>
    <path d="M8.49597 5.32949V4.95849C8.49597 3.73849 9.48397 2.75049 10.704 2.75049H13.286C14.505 2.75049 15.494 3.73849 15.494 4.95849L15.495 5.32949" stroke="currentColor" stroke-width="1.5" stroke-linecap="round" stroke-linejoin="round"/>
    <path d="M11.995 16.6782V15.3842" stroke="currentColor" fill-opacity="0" stroke-width="1.5" stroke-linecap="round" stroke-linejoin="round"/>
    <path fill-rule="evenodd" clip-rule="evenodd" d="M2.74988 8.38912V11.8561C4.66788 13.1211 6.96588 14.0071 9.48788 14.3581C9.78988 13.2571 10.7829 12.4501 11.9899 12.4501C13.1779 12.4501 14.1909 13.2571 14.4729 14.3681C17.0049 14.0171 19.3119 13.1311 21.2399 11.8561V8.38912C21.2399 6.69512 19.8769 5.33112 18.1829 5.33112H5.81688C4.12288 5.33112 2.74988 6.69512 2.74988 8.38912Z" stroke="currentColor" stroke-width="1.5" stroke-linecap="round" fill-opacity="0" stroke-linejoin="round"/>
</symbol><symbol id="share" viewBox="0 0 24 24">
    <path d="M12 3C10.3916 3 9.08789 4.28906 9.02344 5.88281C6.31934 7.03125 4.5 9.70605 4.5 12.75C4.5 12.8789 4.49414 13.0195 4.5 13.1719C3.6123 13.6934 3 14.6514 3 15.75C3 17.3994 4.35059 18.75 6 18.75C6.43066 18.75 6.84668 18.6592 7.21875 18.4922C8.51953 19.585 10.2129 20.25 12 20.25C13.7871 20.25 15.4805 19.585 16.7812 18.4922C17.1533 18.6592 17.5693 18.75 18 18.75C19.6494 18.75 21 17.3994 21 15.75C21 14.6396 20.3818 13.667 19.4766 13.1484C19.4883 13.0283 19.5 12.9053 19.5 12.75C19.5 9.70605 17.6807 7.03125 14.9766 5.88281C14.9121 4.28906 13.6084 3 12 3ZM12 4.5C12.8379 4.5 13.5 5.16211 13.5 6C13.5 6.83789 12.8379 7.5 12 7.5C11.1621 7.5 10.5 6.83789 10.5 6C10.5 5.16211 11.1621 4.5 12 4.5ZM9.35156 7.38281C9.85547 8.33789 10.8516 9 12 9C13.1484 9 14.1445 8.33789 14.6484 7.38281C16.6582 8.3584 18 10.4092 18 12.75C16.3506 12.75 15 14.1006 15 15.75C15 16.4209 15.2314 17.0303 15.6094 17.5312C14.6074 18.29 13.3184 18.75 12 18.75C10.6816 18.75 9.39258 18.29 8.39062 17.5312C8.76855 17.0303 9 16.4209 9 15.75C9 14.1006 7.64941 12.75 6 12.75C6 10.4092 7.3418 8.3584 9.35156 7.38281ZM6 14.25C6.83789 14.25 7.5 14.9121 7.5 15.75C7.5 16.5879 6.83789 17.25 6 17.25C5.16211 17.25 4.5 16.5879 4.5 15.75C4.5 14.9121 5.16211 14.25 6 14.25ZM18 14.25C18.8379 14.25 19.5 14.9121 19.5 15.75C19.5 16.5879 18.8379 17.25 18 17.25C17.1621 17.25 16.5 16.5879 16.5 15.75C16.5 14.9121 17.1621 14.25 18 14.25Z" fill="currentColor"/>
</symbol><symbol id="shop" viewBox="0 0 24 24">
    <path fill-rule="evenodd" clip-rule="evenodd" fill-opacity="0" d="M7.42233 19.8203C7.84433 19.8203 8.18733 20.1633 8.18733 20.5853C8.18733 21.0073 7.84433 21.3493 7.42233 21.3493C7.00033 21.3493 6.65833 21.0073 6.65833 20.5853C6.65833 20.1633 7.00033 19.8203 7.42233 19.8203Z" stroke="currentColor" stroke-width="1.5" stroke-linecap="round" stroke-linejoin="round"/>
    <path fill-rule="evenodd" clip-rule="evenodd" d="M18.6747 19.8203C19.0967 19.8203 19.4397 20.1633 19.4397 20.5853C19.4397 21.0073 19.0967 21.3493 18.6747 21.3493C18.2527 21.3493 17.9097 21.0073 17.9097 20.5853C17.9097 20.1633 18.2527 19.8203 18.6747 19.8203Z" stroke="currentColor" stroke-width="1.5" stroke-linecap="round" stroke-linejoin="round" fill-opacity="0"/>
    <path d="M2.74988 3.25L4.82988 3.61L5.79288 15.083C5.87088 16.018 6.65188 16.736 7.58988 16.736H18.5019C19.3979 16.736 20.1579 16.078 20.2869 15.19L21.2359 8.632C21.3529 7.823 20.7259 7.099 19.9089 7.099H5.16388" stroke="currentColor" stroke-width="1.5" stroke-linecap="round" stroke-linejoin="round" fill-opacity="0"/>
    <path d="M14.1254 10.795H16.8984" stroke="currentColor" stroke-width="1.5" stroke-linecap="round" stroke-linejoin="round" fill-opacity="0"/>
</symbol><symbol id="signOut" viewBox="0 0 24 24">
    <path d="M7 6C7.26522 6 7.51957 5.89464 7.70711 5.70711C7.89464 5.51957 8 5.26522 8 5C8 4.73478 7.89464 4.48043 7.70711 4.29289C7.51957 4.10536 7.26522 4 7 4H5C4.73478 4 4.48043 4.10536 4.29289 4.29289C4.10536 4.48043 4 4.73478 4 5V19C4 19.2652 4.10536 19.5196 4.29289 19.7071C4.48043 19.8946 4.73478 20 5 20H7C7.26522 20 7.51957 19.8946 7.70711 19.7071C7.89464 19.5196 8 19.2652 8 19C8 18.7348 7.89464 18.4804 7.70711 18.2929C7.51957 18.1054 7.26522 18 7 18H6V6H7ZM20.82 11.42L18 7.42C17.8471 7.20441 17.615 7.05814 17.3545 7.01317C17.0941 6.9682 16.8264 7.02818 16.61 7.18C16.5018 7.25579 16.4098 7.35224 16.3391 7.46381C16.2684 7.57537 16.2206 7.69982 16.1982 7.82998C16.1759 7.96015 16.1796 8.09344 16.2091 8.22217C16.2386 8.3509 16.2933 8.47252 16.37 8.58L18.09 11H10C9.73478 11 9.48043 11.1054 9.29289 11.2929C9.10536 11.4804 9 11.7348 9 12C9 12.2652 9.10536 12.5196 9.29289 12.7071C9.48043 12.8946 9.73478 13 10 13H18L16.2 15.4C16.1212 15.5051 16.0639 15.6246 16.0313 15.7518C15.9987 15.879 15.9915 16.0114 16.01 16.1414C16.0286 16.2714 16.0726 16.3965 16.1395 16.5095C16.2064 16.6225 16.2949 16.7212 16.4 16.8C16.5731 16.9298 16.7836 17 17 17C17.1552 17 17.3084 16.9639 17.4472 16.8944C17.5861 16.825 17.7069 16.7242 17.8 16.6L20.8 12.6C20.9281 12.4309 20.999 12.2254 21.0026 12.0133C21.0062 11.8011 20.9423 11.5934 20.82 11.42Z" fill="currentColor"/>
</symbol><symbol id="star" viewBox="0 0 34 35">
    <path d="M19.954 2.52013L22.9504 8.55322C23.3542 9.38758 24.438 10.1792 25.3518 10.3503L30.7709 11.2488C34.2349 11.8265 35.0425 14.351 32.5561 16.8754L28.327 21.1328C27.6257 21.8388 27.2219 23.2294 27.4557 24.235L28.667 29.4979C29.6234 33.6483 27.4132 35.2742 23.7792 33.092L18.7001 30.0541C17.7863 29.4979 16.2562 29.4979 15.3424 30.0541L10.2633 33.092C6.62929 35.2528 4.41914 33.6483 5.37546 29.4979L6.58679 24.235C6.77805 23.208 6.37427 21.8174 5.67298 21.1114L1.44394 16.8541C-1.04248 14.351 -0.234927 11.8265 3.22906 11.2275L8.64818 10.3289C9.56199 10.1792 10.6458 9.36619 11.0496 8.53182L14.046 2.49874C15.6824 -0.753137 18.3176 -0.753136 19.954 2.52013Z" fill="currentColor"/>
</symbol><symbol id="task" viewBox="0 0 24 24">
    <path d="M15.8554 8.12111L10.1916 13.8227L3.56064 9.74147C2.69176 9.20657 2.86787 7.88697 3.8467 7.60287L19.5022 3.04743C20.3925 2.78978 21.2156 3.62446 20.949 4.51889L16.304 20.1582C16.013 21.1369 14.7082 21.3064 14.1809 20.4325L10.1916 13.8227" stroke="currentColor" fill-opacity="0" stroke-width="1.5" stroke-linecap="round" stroke-linejoin="round"/>
</symbol><symbol id="twitter" viewBox="0 0 24 24">
    <path d="M21 6.41894C20.3379 6.71191 19.626 6.91113 18.8789 6.99902C19.6406 6.54199 20.2266 5.81836 20.502 4.95703C19.79 5.37891 18.999 5.68652 18.1582 5.85352C17.4844 5.13574 16.5234 4.68457 15.4629 4.68457C13.4238 4.68457 11.7686 6.33984 11.7686 8.37891C11.7686 8.66895 11.8008 8.95019 11.8652 9.21973C8.79492 9.06738 6.07324 7.59668 4.25391 5.36133C3.93457 5.90625 3.75293 6.54199 3.75293 7.21875C3.75293 8.49902 4.40332 9.62988 5.39648 10.292C4.79004 10.2715 4.22168 10.1074 3.72363 9.8291C3.72363 9.84668 3.72363 9.86133 3.72363 9.87598C3.72363 11.666 4.99512 13.1602 6.68555 13.4971C6.375 13.582 6.0498 13.6289 5.71289 13.6289C5.47559 13.6289 5.24121 13.6055 5.01855 13.5615C5.4873 15.0293 6.85254 16.0957 8.4668 16.1279C7.2041 17.1182 5.61035 17.707 3.88184 17.707C3.58301 17.707 3.29004 17.6895 3 17.6543C4.63477 18.7031 6.57422 19.3154 8.66016 19.3154C15.4541 19.3154 19.1689 13.6875 19.1689 8.80664C19.1689 8.64844 19.1631 8.4873 19.1572 8.3291C19.8779 7.80762 20.5049 7.15723 21 6.41894Z" fill="currentColor"/>
</symbol><symbol id="wallet" viewBox="0 0 24 24">
    <path d="M21.6389 14.3958H17.5906C16.1042 14.3949 14.8993 13.191 14.8984 11.7045C14.8984 10.2181 16.1042 9.01416 17.5906 9.01324H21.6389" stroke="currentColor" fill-opacity="0" stroke-width="1.5" stroke-linecap="round" stroke-linejoin="round"/>
    <path d="M18.0485 11.6429H17.7369" stroke="currentColor" fill-opacity="0" stroke-width="1.5" stroke-linecap="round" stroke-linejoin="round"/>
    <path fill-rule="evenodd" clip-rule="evenodd" d="M7.74766 3H16.3911C19.2892 3 21.6388 5.34951 21.6388 8.24766V15.4247C21.6388 18.3229 19.2892 20.6724 16.3911 20.6724H7.74766C4.84951 20.6724 2.5 18.3229 2.5 15.4247V8.24766C2.5 5.34951 4.84951 3 7.74766 3Z" stroke="currentColor" fill-opacity="0" stroke-width="1.5" stroke-linecap="round" stroke-linejoin="round"/>
    <path d="M7.03564 7.53814H12.4346" stroke="currentColor" fill-opacity="0" stroke-width="1.5" stroke-linecap="round" stroke-linejoin="round"/>
</symbol><symbol id="whatsapp_outline" viewBox="0 0 24 24">
    <path fill-rule="evenodd" clip-rule="evenodd" d="M18.3779 5.62793C16.6846 3.93457 14.4346 3 12.0381 3C7.09863 3 3.07617 7.01953 3.07617 11.959C3.07324 13.5381 3.48633 15.0791 4.27148 16.4385L3 21.082L7.75195 19.834C9.05859 20.5488 10.5352 20.9238 12.0352 20.9268H12.0381C16.9775 20.9268 20.9971 16.9072 21 11.9648C21 9.57129 20.0684 7.32129 18.3779 5.62793ZM12.0381 19.4121H12.0352C10.6992 19.4121 9.38672 19.0518 8.24414 18.375L7.97168 18.2139L5.15039 18.9521L5.90332 16.2041L5.72754 15.9229C4.98047 14.7363 4.58789 13.3652 4.58789 11.959C4.58789 7.85449 7.93066 4.51465 12.041 4.51465C14.0303 4.51465 15.8994 5.29102 17.3057 6.69727C18.7119 8.10645 19.4854 9.97559 19.4854 11.9648C19.4854 16.0723 16.1426 19.4121 12.0381 19.4121ZM16.1221 13.834C15.8994 13.7227 14.7979 13.1807 14.5928 13.1074C14.3877 13.0312 14.2383 12.9961 14.0889 13.2188C13.9395 13.4443 13.5117 13.9482 13.3799 14.0977C13.251 14.2441 13.1191 14.2646 12.8965 14.1533C12.6709 14.042 11.9502 13.8047 11.0947 13.04C10.4297 12.4482 9.97852 11.7129 9.84961 11.4902C9.71777 11.2646 9.83496 11.1445 9.94629 11.0332C10.0488 10.9336 10.1719 10.7725 10.2832 10.6406C10.3945 10.5117 10.4326 10.418 10.5088 10.2686C10.582 10.1191 10.5439 9.9873 10.4883 9.87598C10.4326 9.76465 9.98438 8.66016 9.79688 8.21191C9.61523 7.77539 9.43066 7.83691 9.29297 7.82812C9.16406 7.82227 9.01465 7.82227 8.86524 7.82227C8.71582 7.82227 8.47266 7.87793 8.26758 8.10352C8.0625 8.32617 7.48535 8.86816 7.48535 9.96973C7.48535 11.0713 8.28809 12.1377 8.39941 12.2871C8.51074 12.4336 9.97852 14.6953 12.2256 15.665C12.7588 15.8965 13.1748 16.0342 13.5 16.1367C14.0361 16.3066 14.5254 16.2832 14.9121 16.2275C15.3428 16.1631 16.2363 15.6855 16.4238 15.1611C16.6084 14.6396 16.6084 14.1914 16.5527 14.0977C16.4971 14.0039 16.3477 13.9482 16.1221 13.834Z" fill="currentColor"/>
</symbol></svg>