<svg width="293" height="287" viewBox="0 0 293 287" fill="none" xmlns="http://www.w3.org/2000/svg">
    <rect width="293" height="287" rx="143.5" fill="white" />
    <path
        d="M66 82.3591C66.2241 90.1661 65.704 97.4526 66.8035 104.485C68.4061 114.759 74.7323 121.817 84.6063 125.393C88.8476 126.929 93.144 128.342 97.4868 129.548C99.6942 130.162 100.43 131.147 100.438 133.479C100.527 154.89 100.76 176.301 100.942 197.712C101.047 210.013 108.266 219.944 119.924 223.765C126.669 225.978 133.426 228.166 140.548 230.489C140.577 228.521 140.641 226.837 140.624 225.149C140.323 192.212 139.82 159.274 139.812 126.337C139.812 115.631 131.925 103.47 120.593 100.046C103.492 94.8757 86.5726 89.0659 69.5775 83.527C68.6006 83.2096 67.628 82.8922 66 82.3591Z"
        fill="#35355B" />
    <path
        d="M226.614 82.3591C226.39 90.1661 226.91 97.4526 225.811 104.485C224.208 114.759 217.882 121.817 208.008 125.393C203.767 126.929 199.47 128.342 195.127 129.548C192.92 130.162 192.184 131.147 192.176 133.479C192.087 154.89 191.854 176.301 191.673 197.712C191.567 210.013 184.348 219.944 172.69 223.765C165.945 225.978 159.187 228.166 152.066 230.489C152.037 228.521 151.973 226.837 151.991 225.149C152.291 192.212 152.794 159.274 152.802 126.337C152.802 115.631 160.689 103.47 172.022 100.046C189.131 94.8757 206.046 89.0659 223.041 83.527C224.009 83.2096 224.986 82.8922 226.614 82.3591Z"
        fill="#35355B" />
    <path d="M145.825 98.9251C157.395 98.9251 166.774 89.5398 166.774 77.9625C166.774 66.3852 157.395 57 145.825 57C134.255 57 124.876 66.3852 124.876 77.9625C124.876 89.5398 134.255 98.9251 145.825 98.9251Z" fill="#89216B" />
</svg>