<svg width="400" height="400" viewBox="0 0 400 400" fill="none" xmlns="http://www.w3.org/2000/svg">
    <rect width="400" height="400" rx="200" fill="#4F1DED" />
    <g filter="url(#filter0_d_319_415)">
        <path
            d="M190.582 314.946C191.078 315.107 191.575 315.269 192.073 315.432C192.079 315.102 192.086 314.777 192.093 314.457C192.129 312.818 192.162 311.294 192.147 309.767C192.029 296.788 191.887 283.809 191.745 270.83C191.4 239.193 191.055 207.557 191.047 175.92C191.047 161.419 180.357 144.946 164.996 140.309C148.712 135.388 132.549 130.04 116.387 124.693C109.544 122.428 102.701 120.164 95.849 117.933C94.8588 117.611 93.8718 117.29 92.514 116.846C92.5278 117.378 92.5391 117.908 92.5485 118.435M190.582 314.946C190.586 314.76 190.59 314.576 190.594 314.393C190.63 312.77 190.662 311.286 190.647 309.782L190.647 309.78C190.529 296.807 190.387 283.831 190.246 270.853C189.9 239.214 189.555 207.565 189.547 175.92V175.92C189.547 162.018 179.233 146.174 164.563 141.745L164.562 141.745C148.258 136.818 132.066 131.46 115.895 126.11C109.057 123.847 102.222 121.586 95.3851 119.359M190.582 314.946C187.706 314.009 184.873 313.088 182.068 312.176C176.143 310.25 170.348 308.366 164.558 306.467L164.557 306.467C149.371 301.493 139.999 288.612 139.861 272.59C139.797 265.022 139.728 257.455 139.659 249.888C139.463 228.453 139.268 207.022 139.179 185.59M190.582 314.946C190.572 315.453 190.561 315.974 190.552 316.514C187.527 315.528 184.549 314.56 181.603 313.602C175.678 311.676 169.881 309.791 164.091 307.892C148.288 302.717 138.504 289.264 138.361 272.602C138.297 265.036 138.228 257.47 138.159 249.904C137.963 228.468 137.768 207.031 137.679 185.595M95.3851 119.359C95.3854 119.359 95.3856 119.359 95.3858 119.359L95.8489 117.933L95.3845 119.359C95.3847 119.359 95.3849 119.359 95.3851 119.359ZM95.3851 119.359C94.5199 119.078 93.6572 118.797 92.5485 118.435M92.5485 118.435C92.0925 118.286 91.595 118.124 91.0386 117.941M92.5485 118.435L91.0386 117.941M139.179 185.59L137.679 185.595M139.179 185.59C139.179 185.589 139.179 185.589 139.179 185.589L137.679 185.595M139.179 185.59L133.678 180.27M137.679 185.595C137.667 182.437 136.67 181.102 133.678 180.27M133.678 180.27C127.792 178.637 121.968 176.722 116.219 174.642C102.836 169.799 94.2613 160.238 92.089 146.322C91.0684 139.797 91.0775 133.111 91.0869 126.148C91.0906 123.456 91.0943 120.723 91.0386 117.941M133.678 180.27L91.0386 117.941"
            fill="white" stroke="white" stroke-width="3" />
        <path
            d="M259.84 272.589C259.905 265.022 259.974 257.455 260.043 249.888C260.238 228.453 260.433 207.022 260.522 185.589C260.529 183.888 260.793 182.375 261.705 181.16C262.621 179.939 263.997 179.276 265.622 178.825L265.622 178.825C271.464 177.204 277.25 175.302 282.971 173.231L283.482 174.642L282.971 173.231C295.891 168.556 304.05 159.414 306.13 146.09L306.13 146.09C307.132 139.683 307.123 133.19 307.113 126.294C307.109 123.735 307.105 121.121 307.153 118.435C306.825 118.542 306.518 118.642 306.228 118.736C305.537 118.962 304.932 119.159 304.325 119.358L304.322 119.359C297.491 121.584 290.663 123.843 283.831 126.104C267.655 131.456 251.457 136.816 235.139 141.745L235.138 141.745C220.468 146.174 210.154 162.018 210.154 175.92V175.92C210.146 207.565 209.801 239.214 209.456 270.854C209.314 283.831 209.172 296.807 209.054 309.78L209.054 309.782C209.039 311.286 209.071 312.77 209.107 314.393C209.111 314.576 209.115 314.76 209.119 314.946C211.995 314.009 214.829 313.088 217.634 312.176C223.559 310.249 229.353 308.365 235.143 306.467L235.144 306.467C250.33 301.493 259.702 288.612 259.84 272.589ZM259.84 272.589C259.84 272.589 259.84 272.589 259.84 272.589L261.34 272.602L259.84 272.589Z"
            fill="white" stroke="white" stroke-width="3" />
        <path d="M226.092 110.395C226.092 125.248 214.051 137.29 199.197 137.29C184.344 137.29 172.302 125.248 172.302 110.395C172.302 95.5412 184.344 83.5 199.197 83.5C214.051 83.5 226.092 95.5412 226.092 110.395Z" fill="white" stroke="white" stroke-width="3" />
    </g>
    <defs>
        <filter id="filter0_d_319_415" x="87" y="82" width="225.701" height="243" filterUnits="userSpaceOnUse" color-interpolation-filters="sRGB">
            <feFlood flood-opacity="0" result="BackgroundImageFix" />
            <feColorMatrix in="SourceAlpha" type="matrix" values="0 0 0 0 0 0 0 0 0 0 0 0 0 0 0 0 0 0 127 0" result="hardAlpha" />
            <feOffset dy="4" />
            <feGaussianBlur stdDeviation="2" />
            <feComposite in2="hardAlpha" operator="out" />
            <feColorMatrix type="matrix" values="0 0 0 0 0 0 0 0 0 0 0 0 0 0 0 0 0 0 0.25 0" />
            <feBlend mode="normal" in2="BackgroundImageFix" result="effect1_dropShadow_319_415" />
            <feBlend mode="normal" in="SourceGraphic" in2="effect1_dropShadow_319_415" result="shape" />
        </filter>
    </defs>
</svg>