<svg width="345" height="142" viewBox="0 0 345 142" fill="none" xmlns="http://www.w3.org/2000/svg">
    <rect width="82" height="82" rx="41" fill="#4F1DED" />
    <path
        d="M18.655 23.8518C18.7173 26.0197 18.5728 28.043 18.8783 29.9959C19.3236 32.8488 21.0814 34.8087 23.825 35.8015C25.0035 36.228 26.1973 36.6205 27.4041 36.9554C28.0174 37.1257 28.2219 37.3995 28.2242 38.0469C28.2489 43.9924 28.3135 49.9379 28.364 55.8834C28.3934 59.2991 30.3991 62.0568 33.6386 63.1178C35.5127 63.7324 37.3904 64.3398 39.3691 64.9849C39.3773 64.4385 39.3949 63.9709 39.3902 63.5021C39.3068 54.3559 39.167 45.2097 39.1646 36.0635C39.1646 33.0908 36.9732 29.7139 33.8242 28.7633C29.0726 27.3274 24.3714 25.7142 19.6491 24.1761C19.3777 24.088 19.1074 23.9999 18.655 23.8518Z"
        fill="white" />
    <path
        d="M63.2837 23.8518C63.2214 26.0197 63.3659 28.043 63.0604 29.9959C62.6151 32.8488 60.8573 34.8087 58.1137 35.8015C56.9352 36.228 55.7414 36.6205 54.5347 36.9554C53.9213 37.1257 53.7169 37.3995 53.7145 38.0469C53.6898 43.9924 53.6252 49.9379 53.5747 55.8834C53.5453 59.2991 51.5396 62.0568 48.3001 63.1178C46.426 63.7324 44.5484 64.3398 42.5697 64.9849C42.5614 64.4385 42.5438 63.9709 42.5485 63.5021C42.6319 54.3559 42.7718 45.2097 42.7741 36.0635C42.7741 33.0908 44.9655 29.7139 48.1145 28.7633C52.8685 27.3274 57.5685 25.7142 62.2908 24.1761C62.5599 24.088 62.8313 23.9999 63.2837 23.8518Z"
        fill="white" />
    <path d="M40.8355 28.4518C44.0503 28.4518 46.6564 25.8457 46.6564 22.6309C46.6564 19.4161 44.0503 16.8099 40.8355 16.8099C37.6206 16.8099 35.0145 19.4161 35.0145 22.6309C35.0145 25.8457 37.6206 28.4518 40.8355 28.4518Z" fill="white" />
    <path
        d="M124.601 66.576C122.979 66.576 121.742 66.128 120.889 65.232C120.035 64.336 119.609 63.0773 119.609 61.456V29.072H108.281C106.958 29.072 105.934 28.7093 105.209 27.984C104.483 27.2587 104.12 26.256 104.12 24.976C104.12 23.6533 104.483 22.6507 105.209 21.968C105.934 21.2427 106.958 20.88 108.281 20.88H140.857C142.179 20.88 143.203 21.2427 143.929 21.968C144.654 22.6507 145.017 23.6533 145.017 24.976C145.017 26.256 144.654 27.2587 143.929 27.984C143.203 28.7093 142.179 29.072 140.857 29.072H129.529V61.456C129.529 63.0773 129.102 64.336 128.249 65.232C127.438 66.128 126.222 66.576 124.601 66.576ZM154.024 66.704C151.72 66.704 149.65 66.256 147.816 65.36C145.981 64.464 144.552 63.248 143.528 61.712C142.504 60.176 141.992 58.448 141.992 56.528C141.992 54.224 142.589 52.4107 143.784 51.088C144.978 49.7227 146.92 48.7627 149.608 48.208C152.296 47.6107 155.858 47.312 160.296 47.312H163.688V52.304H160.36C158.184 52.304 156.413 52.432 155.048 52.688C153.725 52.9013 152.765 53.2853 152.168 53.84C151.613 54.3947 151.336 55.1627 151.336 56.144C151.336 57.3387 151.741 58.32 152.552 59.088C153.405 59.856 154.621 60.24 156.2 60.24C157.437 60.24 158.525 59.9627 159.464 59.408C160.445 58.8107 161.213 58.0213 161.768 57.04C162.322 56.016 162.6 54.864 162.6 53.584V46.224C162.6 44.3467 162.173 43.024 161.32 42.256C160.466 41.4453 159.016 41.04 156.968 41.04C155.816 41.04 154.557 41.1893 153.192 41.488C151.869 41.744 150.397 42.192 148.776 42.832C147.837 43.2587 147.005 43.3653 146.28 43.152C145.554 42.896 145 42.4693 144.616 41.872C144.232 41.232 144.04 40.5493 144.04 39.824C144.04 39.056 144.253 38.3307 144.68 37.648C145.106 36.9227 145.81 36.3893 146.792 36.048C148.797 35.2373 150.674 34.6827 152.424 34.384C154.216 34.0853 155.858 33.936 157.352 33.936C160.637 33.936 163.325 34.4267 165.416 35.408C167.549 36.3467 169.149 37.8187 170.216 39.824C171.282 41.7867 171.816 44.3253 171.816 47.44V61.648C171.816 63.2267 171.432 64.4427 170.664 65.296C169.896 66.1493 168.786 66.576 167.336 66.576C165.885 66.576 164.754 66.1493 163.944 65.296C163.176 64.4427 162.792 63.2267 162.792 61.648V59.28L163.24 59.664C162.984 61.1147 162.429 62.3733 161.576 63.44C160.765 64.464 159.72 65.2747 158.44 65.872C157.16 66.4267 155.688 66.704 154.024 66.704ZM189.649 66.704C187.345 66.704 185.275 66.256 183.441 65.36C181.606 64.464 180.177 63.248 179.153 61.712C178.129 60.176 177.617 58.448 177.617 56.528C177.617 54.224 178.214 52.4107 179.409 51.088C180.603 49.7227 182.545 48.7627 185.233 48.208C187.921 47.6107 191.483 47.312 195.921 47.312H199.313V52.304H195.985C193.809 52.304 192.038 52.432 190.673 52.688C189.35 52.9013 188.39 53.2853 187.793 53.84C187.238 54.3947 186.961 55.1627 186.961 56.144C186.961 57.3387 187.366 58.32 188.177 59.088C189.03 59.856 190.246 60.24 191.825 60.24C193.062 60.24 194.15 59.9627 195.089 59.408C196.07 58.8107 196.838 58.0213 197.393 57.04C197.947 56.016 198.225 54.864 198.225 53.584V46.224C198.225 44.3467 197.798 43.024 196.945 42.256C196.091 41.4453 194.641 41.04 192.593 41.04C191.441 41.04 190.182 41.1893 188.817 41.488C187.494 41.744 186.022 42.192 184.401 42.832C183.462 43.2587 182.63 43.3653 181.905 43.152C181.179 42.896 180.625 42.4693 180.241 41.872C179.857 41.232 179.665 40.5493 179.665 39.824C179.665 39.056 179.878 38.3307 180.305 37.648C180.731 36.9227 181.435 36.3893 182.417 36.048C184.422 35.2373 186.299 34.6827 188.049 34.384C189.841 34.0853 191.483 33.936 192.977 33.936C196.262 33.936 198.95 34.4267 201.041 35.408C203.174 36.3467 204.774 37.8187 205.841 39.824C206.907 41.7867 207.441 44.3253 207.441 47.44V61.648C207.441 63.2267 207.057 64.4427 206.289 65.296C205.521 66.1493 204.411 66.576 202.961 66.576C201.51 66.576 200.379 66.1493 199.569 65.296C198.801 64.4427 198.417 63.2267 198.417 61.648V59.28L198.865 59.664C198.609 61.1147 198.054 62.3733 197.201 63.44C196.39 64.464 195.345 65.2747 194.065 65.872C192.785 66.4267 191.313 66.704 189.649 66.704ZM226.682 66.704C224.804 66.704 222.863 66.5333 220.858 66.192C218.895 65.8507 217.103 65.2747 215.482 64.464C214.628 64.0373 214.01 63.504 213.626 62.864C213.284 62.1813 213.135 61.4987 213.178 60.816C213.22 60.1333 213.434 59.5147 213.818 58.96C214.244 58.4053 214.778 58.0427 215.418 57.872C216.1 57.6587 216.847 57.7227 217.658 58.064C219.407 58.7893 221.007 59.3013 222.458 59.6C223.908 59.8987 225.338 60.048 226.746 60.048C228.58 60.048 229.903 59.7707 230.714 59.216C231.567 58.6187 231.994 57.8507 231.994 56.912C231.994 56.0587 231.716 55.4187 231.162 54.992C230.607 54.5653 229.796 54.2667 228.73 54.096L222.01 52.88C219.364 52.4107 217.316 51.4507 215.866 50C214.458 48.5067 213.754 46.608 213.754 44.304C213.754 42.1707 214.351 40.336 215.546 38.8C216.74 37.2213 218.383 36.0267 220.474 35.216C222.607 34.3627 225.018 33.936 227.706 33.936C229.626 33.936 231.396 34.1067 233.018 34.448C234.639 34.7893 236.196 35.344 237.69 36.112C238.458 36.496 238.991 37.008 239.29 37.648C239.631 38.288 239.738 38.9493 239.61 39.632C239.524 40.3147 239.268 40.9333 238.842 41.488C238.415 42.0427 237.86 42.4053 237.178 42.576C236.538 42.7467 235.791 42.6613 234.938 42.32C233.572 41.68 232.314 41.232 231.162 40.976C230.01 40.6773 228.9 40.528 227.833 40.528C225.914 40.528 224.527 40.848 223.674 41.488C222.82 42.0853 222.394 42.8533 222.394 43.792C222.394 44.5173 222.628 45.136 223.098 45.648C223.61 46.1173 224.378 46.4373 225.402 46.608L232.122 47.824C234.895 48.2933 237.007 49.232 238.458 50.64C239.908 52.0053 240.634 53.8827 240.634 56.272C240.634 59.5147 239.354 62.0747 236.794 63.952C234.276 65.7867 230.906 66.704 226.682 66.704ZM251.014 66.576C249.435 66.576 248.219 66.1493 247.366 65.296C246.555 64.4427 246.15 63.2267 246.15 61.648V25.232C246.15 23.6107 246.555 22.3947 247.366 21.584C248.219 20.7307 249.435 20.304 251.014 20.304C252.55 20.304 253.723 20.7307 254.534 21.584C255.387 22.3947 255.814 23.6107 255.814 25.232V47.568H255.942L265.222 37.264C266.16 36.1973 267.014 35.408 267.782 34.896C268.592 34.3413 269.659 34.064 270.982 34.064C272.304 34.064 273.307 34.4053 273.99 35.088C274.715 35.7707 275.078 36.6027 275.078 37.584C275.12 38.5227 274.715 39.4827 273.862 40.464L264.07 51.408V47.76L274.95 60.304C275.76 61.2853 276.102 62.2667 275.974 63.248C275.888 64.2293 275.462 65.04 274.694 65.68C273.926 66.2773 272.944 66.576 271.75 66.576C270.299 66.576 269.126 66.2987 268.23 65.744C267.376 65.1893 266.502 64.336 265.606 63.184L255.942 52.432H255.814V61.648C255.814 64.9333 254.214 66.576 251.014 66.576ZM293.165 66.704C289.368 66.704 286.53 65.6587 284.653 63.568C282.776 61.4347 281.837 58.2773 281.837 54.096V25.232C281.837 23.6107 282.242 22.3947 283.053 21.584C283.906 20.7307 285.122 20.304 286.701 20.304C288.237 20.304 289.41 20.7307 290.221 21.584C291.074 22.3947 291.501 23.6107 291.501 25.232V53.712C291.501 55.4613 291.864 56.7627 292.589 57.616C293.357 58.4267 294.36 58.832 295.597 58.832C295.938 58.832 296.258 58.8107 296.557 58.768C296.856 58.7253 297.176 58.704 297.517 58.704C298.2 58.6187 298.669 58.832 298.925 59.344C299.224 59.8133 299.373 60.7733 299.373 62.224C299.373 63.504 299.117 64.4853 298.605 65.168C298.093 65.808 297.304 66.2347 296.237 66.448C295.81 66.4907 295.32 66.5333 294.765 66.576C294.21 66.6613 293.677 66.704 293.165 66.704ZM310.851 78.096C309.741 78.096 308.824 77.7973 308.099 77.2C307.373 76.6027 306.947 75.8133 306.819 74.832C306.691 73.8933 306.861 72.8907 307.331 71.824L311.619 62.352V66.32L300.291 40.336C299.864 39.2267 299.715 38.2027 299.843 37.264C300.013 36.2827 300.483 35.5147 301.251 34.96C302.061 34.3627 303.171 34.064 304.579 34.064C305.731 34.064 306.648 34.3413 307.331 34.896C308.056 35.408 308.717 36.4107 309.315 37.904L316.867 57.104H314.819L322.627 37.84C323.224 36.3893 323.885 35.408 324.611 34.896C325.379 34.3413 326.403 34.064 327.683 34.064C328.792 34.064 329.667 34.3627 330.307 34.96C330.989 35.5147 331.395 36.2613 331.523 37.2C331.693 38.1387 331.523 39.1627 331.011 40.272L315.971 74.384C315.331 75.8347 314.605 76.816 313.795 77.328C313.027 77.84 312.045 78.096 310.851 78.096Z"
        fill="#4F1DED" />
    <rect x="157" y="89" width="188" height="53" rx="26.5" fill="#4F1DED" />
    <path
        d="M203.063 125.3C202.183 125.3 201.303 125.23 200.423 125.09C199.543 124.97 198.713 124.78 197.933 124.52C197.153 124.24 196.453 123.9 195.833 123.5C195.473 123.26 195.223 122.97 195.083 122.63C194.943 122.29 194.893 121.96 194.933 121.64C194.993 121.3 195.123 121.01 195.323 120.77C195.543 120.51 195.813 120.35 196.133 120.29C196.453 120.23 196.803 120.32 197.183 120.56C198.063 121.08 198.993 121.46 199.973 121.7C200.953 121.94 201.983 122.06 203.063 122.06C204.643 122.06 205.793 121.8 206.513 121.28C207.233 120.74 207.593 120.05 207.593 119.21C207.593 118.51 207.333 117.96 206.813 117.56C206.313 117.16 205.443 116.83 204.203 116.57L200.903 115.88C199.003 115.48 197.583 114.81 196.643 113.87C195.723 112.91 195.263 111.65 195.263 110.09C195.263 109.11 195.463 108.22 195.863 107.42C196.263 106.62 196.823 105.93 197.543 105.35C198.283 104.77 199.153 104.33 200.153 104.03C201.173 103.71 202.293 103.55 203.513 103.55C204.713 103.55 205.853 103.7 206.933 104C208.013 104.3 208.983 104.74 209.843 105.32C210.163 105.54 210.373 105.81 210.473 106.13C210.593 106.45 210.623 106.77 210.563 107.09C210.503 107.39 210.363 107.65 210.143 107.87C209.923 108.09 209.643 108.22 209.303 108.26C208.983 108.3 208.613 108.2 208.193 107.96C207.453 107.54 206.703 107.24 205.943 107.06C205.183 106.88 204.363 106.79 203.483 106.79C202.563 106.79 201.773 106.92 201.113 107.18C200.453 107.44 199.943 107.81 199.583 108.29C199.243 108.75 199.073 109.3 199.073 109.94C199.073 110.66 199.313 111.24 199.793 111.68C200.273 112.1 201.093 112.43 202.253 112.67L205.523 113.36C207.503 113.78 208.973 114.44 209.933 115.34C210.913 116.24 211.403 117.44 211.403 118.94C211.403 119.9 211.203 120.77 210.803 121.55C210.423 122.33 209.863 123 209.123 123.56C208.403 124.12 207.533 124.55 206.513 124.85C205.493 125.15 204.343 125.3 203.063 125.3ZM221.569 125.3C219.909 125.3 218.479 124.99 217.279 124.37C216.079 123.75 215.149 122.87 214.489 121.73C213.849 120.59 213.529 119.24 213.529 117.68C213.529 116.16 213.839 114.83 214.459 113.69C215.099 112.55 215.969 111.66 217.069 111.02C218.189 110.36 219.459 110.03 220.879 110.03C221.919 110.03 222.849 110.2 223.669 110.54C224.509 110.88 225.219 111.37 225.799 112.01C226.399 112.65 226.849 113.43 227.149 114.35C227.469 115.25 227.629 116.27 227.629 117.41C227.629 117.77 227.499 118.05 227.239 118.25C226.999 118.43 226.649 118.52 226.189 118.52H216.559V116.36H224.989L224.509 116.81C224.509 115.89 224.369 115.12 224.089 114.5C223.829 113.88 223.439 113.41 222.919 113.09C222.419 112.75 221.789 112.58 221.029 112.58C220.189 112.58 219.469 112.78 218.869 113.18C218.289 113.56 217.839 114.11 217.519 114.83C217.219 115.53 217.069 116.37 217.069 117.35V117.56C217.069 119.2 217.449 120.43 218.209 121.25C218.989 122.05 220.129 122.45 221.629 122.45C222.149 122.45 222.729 122.39 223.369 122.27C224.029 122.13 224.649 121.9 225.229 121.58C225.649 121.34 226.019 121.24 226.339 121.28C226.659 121.3 226.909 121.41 227.089 121.61C227.289 121.81 227.409 122.06 227.449 122.36C227.489 122.64 227.429 122.93 227.269 123.23C227.129 123.53 226.879 123.79 226.519 124.01C225.819 124.45 225.009 124.78 224.089 125C223.189 125.2 222.349 125.3 221.569 125.3ZM232.518 125.24C231.898 125.24 231.418 125.08 231.078 124.76C230.758 124.42 230.598 123.94 230.598 123.32V111.98C230.598 111.36 230.758 110.89 231.078 110.57C231.398 110.25 231.848 110.09 232.428 110.09C233.008 110.09 233.458 110.25 233.778 110.57C234.098 110.89 234.258 111.36 234.258 111.98V113.87H233.958C234.238 112.67 234.788 111.76 235.608 111.14C236.428 110.52 237.518 110.15 238.878 110.03C239.298 109.99 239.628 110.1 239.868 110.36C240.128 110.6 240.278 110.98 240.318 111.5C240.358 112 240.238 112.41 239.958 112.73C239.698 113.03 239.298 113.21 238.758 113.27L238.098 113.33C236.878 113.45 235.958 113.83 235.338 114.47C234.718 115.09 234.408 115.97 234.408 117.11V123.32C234.408 123.94 234.248 124.42 233.928 124.76C233.608 125.08 233.138 125.24 232.518 125.24ZM249.195 125.24C248.695 125.24 248.255 125.11 247.875 124.85C247.515 124.59 247.215 124.19 246.975 123.65L242.205 112.58C242.025 112.14 241.955 111.73 241.995 111.35C242.055 110.97 242.235 110.67 242.535 110.45C242.855 110.21 243.285 110.09 243.825 110.09C244.285 110.09 244.655 110.2 244.935 110.42C245.215 110.62 245.465 111.01 245.685 111.59L249.735 121.7H248.835L253.005 111.56C253.225 111 253.475 110.62 253.755 110.42C254.055 110.2 254.455 110.09 254.955 110.09C255.395 110.09 255.745 110.21 256.005 110.45C256.265 110.67 256.425 110.97 256.485 111.35C256.545 111.71 256.475 112.11 256.275 112.55L251.415 123.65C251.195 124.19 250.895 124.59 250.515 124.85C250.155 125.11 249.715 125.24 249.195 125.24ZM260.935 125.21C260.335 125.21 259.875 125.03 259.555 124.67C259.235 124.31 259.075 123.81 259.075 123.17V112.16C259.075 111.5 259.235 111 259.555 110.66C259.875 110.3 260.335 110.12 260.935 110.12C261.535 110.12 261.995 110.3 262.315 110.66C262.655 111 262.825 111.5 262.825 112.16V123.17C262.825 123.81 262.665 124.31 262.345 124.67C262.025 125.03 261.555 125.21 260.935 125.21ZM260.935 107.33C260.235 107.33 259.685 107.16 259.285 106.82C258.905 106.46 258.715 105.97 258.715 105.35C258.715 104.71 258.905 104.22 259.285 103.88C259.685 103.54 260.235 103.37 260.935 103.37C261.655 103.37 262.205 103.54 262.585 103.88C262.965 104.22 263.155 104.71 263.155 105.35C263.155 105.97 262.965 106.46 262.585 106.82C262.205 107.16 261.655 107.33 260.935 107.33ZM273.501 125.3C271.961 125.3 270.621 124.99 269.481 124.37C268.341 123.73 267.461 122.83 266.841 121.67C266.221 120.51 265.911 119.15 265.911 117.59C265.911 116.41 266.081 115.36 266.421 114.44C266.781 113.5 267.291 112.71 267.951 112.07C268.611 111.41 269.411 110.91 270.351 110.57C271.291 110.21 272.341 110.03 273.501 110.03C274.161 110.03 274.871 110.12 275.631 110.3C276.411 110.48 277.141 110.78 277.821 111.2C278.141 111.4 278.351 111.64 278.451 111.92C278.551 112.2 278.571 112.49 278.511 112.79C278.451 113.07 278.321 113.32 278.121 113.54C277.941 113.74 277.711 113.87 277.431 113.93C277.151 113.97 276.841 113.9 276.501 113.72C276.061 113.46 275.611 113.27 275.151 113.15C274.691 113.01 274.251 112.94 273.831 112.94C273.171 112.94 272.591 113.05 272.091 113.27C271.591 113.47 271.161 113.77 270.801 114.17C270.461 114.55 270.201 115.03 270.021 115.61C269.841 116.19 269.751 116.86 269.751 117.62C269.751 119.1 270.101 120.27 270.801 121.13C271.521 121.97 272.531 122.39 273.831 122.39C274.251 122.39 274.681 122.33 275.121 122.21C275.581 122.09 276.041 121.9 276.501 121.64C276.841 121.46 277.141 121.4 277.401 121.46C277.681 121.52 277.911 121.66 278.091 121.88C278.271 122.08 278.381 122.33 278.421 122.63C278.461 122.91 278.421 123.19 278.301 123.47C278.201 123.75 278.001 123.98 277.701 124.16C277.041 124.56 276.341 124.85 275.601 125.03C274.861 125.21 274.161 125.3 273.501 125.3ZM287.809 125.3C286.149 125.3 284.719 124.99 283.519 124.37C282.319 123.75 281.389 122.87 280.729 121.73C280.089 120.59 279.769 119.24 279.769 117.68C279.769 116.16 280.079 114.83 280.699 113.69C281.339 112.55 282.209 111.66 283.309 111.02C284.429 110.36 285.699 110.03 287.119 110.03C288.159 110.03 289.089 110.2 289.909 110.54C290.749 110.88 291.459 111.37 292.039 112.01C292.639 112.65 293.089 113.43 293.389 114.35C293.709 115.25 293.869 116.27 293.869 117.41C293.869 117.77 293.739 118.05 293.479 118.25C293.239 118.43 292.889 118.52 292.429 118.52H282.799V116.36H291.229L290.749 116.81C290.749 115.89 290.609 115.12 290.329 114.5C290.069 113.88 289.679 113.41 289.159 113.09C288.659 112.75 288.029 112.58 287.269 112.58C286.429 112.58 285.709 112.78 285.109 113.18C284.529 113.56 284.079 114.11 283.759 114.83C283.459 115.53 283.309 116.37 283.309 117.35V117.56C283.309 119.2 283.689 120.43 284.449 121.25C285.229 122.05 286.369 122.45 287.869 122.45C288.389 122.45 288.969 122.39 289.609 122.27C290.269 122.13 290.889 121.9 291.469 121.58C291.889 121.34 292.259 121.24 292.579 121.28C292.899 121.3 293.149 121.41 293.329 121.61C293.529 121.81 293.649 122.06 293.689 122.36C293.729 122.64 293.669 122.93 293.509 123.23C293.369 123.53 293.119 123.79 292.759 124.01C292.059 124.45 291.249 124.78 290.329 125C289.429 125.2 288.589 125.3 287.809 125.3ZM302.209 125.3C301.349 125.3 300.439 125.21 299.479 125.03C298.519 124.85 297.659 124.54 296.899 124.1C296.579 123.9 296.349 123.67 296.209 123.41C296.089 123.13 296.039 122.86 296.059 122.6C296.099 122.32 296.199 122.08 296.359 121.88C296.539 121.68 296.759 121.55 297.019 121.49C297.299 121.43 297.599 121.48 297.919 121.64C298.719 122.02 299.469 122.29 300.169 122.45C300.869 122.59 301.559 122.66 302.239 122.66C303.199 122.66 303.909 122.5 304.369 122.18C304.849 121.84 305.089 121.4 305.089 120.86C305.089 120.4 304.929 120.05 304.609 119.81C304.309 119.55 303.849 119.36 303.229 119.24L300.229 118.67C298.989 118.43 298.039 117.98 297.379 117.32C296.739 116.64 296.419 115.77 296.419 114.71C296.419 113.75 296.679 112.92 297.199 112.22C297.739 111.52 298.479 110.98 299.419 110.6C300.359 110.22 301.439 110.03 302.659 110.03C303.539 110.03 304.359 110.13 305.119 110.33C305.899 110.51 306.649 110.8 307.369 111.2C307.669 111.36 307.869 111.57 307.969 111.83C308.089 112.09 308.119 112.36 308.059 112.64C307.999 112.9 307.879 113.14 307.699 113.36C307.519 113.56 307.289 113.69 307.009 113.75C306.749 113.79 306.449 113.73 306.109 113.57C305.489 113.25 304.889 113.02 304.309 112.88C303.749 112.74 303.209 112.67 302.689 112.67C301.709 112.67 300.979 112.84 300.499 113.18C300.039 113.52 299.809 113.97 299.809 114.53C299.809 114.95 299.949 115.3 300.229 115.58C300.509 115.86 300.939 116.05 301.519 116.15L304.519 116.72C305.819 116.96 306.799 117.4 307.459 118.04C308.139 118.68 308.479 119.54 308.479 120.62C308.479 122.08 307.909 123.23 306.769 124.07C305.629 124.89 304.109 125.3 302.209 125.3Z"
        fill="white" />
</svg>