<svg width="124" height="38" viewBox="0 0 124 38" fill="none" xmlns="http://www.w3.org/2000/svg">
    <g clip-path="url(#clip0_3_34)">
        <path
            d="M0 5.47525C0.0484211 7.16085 -0.0639524 8.73408 0.173585 10.2525C0.519842 12.4707 1.8866 13.9946 4.01987 14.7666C4.93621 15.0983 5.86444 15.4034 6.80271 15.6638C7.27961 15.7963 7.43858 16.0091 7.44041 16.5125C7.45959 21.1354 7.50984 25.7582 7.54913 30.3811C7.57197 33.0369 9.13149 35.1811 11.6503 36.0061C13.1075 36.4839 14.5674 36.9563 16.106 37.4579C16.1124 37.033 16.1261 36.6694 16.1224 36.3049C16.0575 29.1934 15.9488 22.0819 15.947 14.9704C15.947 12.6589 14.2431 10.0332 11.7947 9.29412C8.10003 8.1777 4.44469 6.92332 0.772911 5.72741C0.561868 5.65888 0.351738 5.59036 0 5.47525Z"
            fill="#35355B" />
        <path
            d="M34.7006 5.47525C34.6522 7.16085 34.7645 8.73408 34.527 10.2525C34.1807 12.4707 32.814 13.9946 30.6807 14.7666C29.7644 15.0983 28.8362 15.4034 27.8979 15.6638C27.421 15.7963 27.262 16.0091 27.2602 16.5125C27.241 21.1354 27.1907 25.7582 27.1515 30.3811C27.1286 33.0369 25.5691 35.1811 23.0503 36.0061C21.5931 36.4839 20.1331 36.9563 18.5946 37.4579C18.5882 37.033 18.5745 36.6694 18.5782 36.3049C18.6431 29.1934 18.7518 22.0819 18.7536 14.9704C18.7536 12.6589 20.4575 10.0332 22.9059 9.29412C26.6024 8.1777 30.2568 6.92332 33.9286 5.72741C34.1378 5.65888 34.3489 5.59036 34.7006 5.47525Z"
            fill="#35355B" />
        <path d="M17.2462 9.05201C19.7458 9.05201 21.7722 7.02565 21.7722 4.526C21.7722 2.02636 19.7458 0 17.2462 0C14.7465 0 12.7202 2.02636 12.7202 4.526C12.7202 7.02565 14.7465 9.05201 17.2462 9.05201Z" fill="#89216B" />
    </g>
    <path
        d="M56.1168 11.9842V28.9379H58.6571V11.9842H65.0214V9.84498H49.7525V11.9842H56.1168ZM76.0357 28.8844C75.6435 29.1161 75.0998 29.232 74.4045 29.232C73.8162 29.232 73.3438 29.0716 72.9872 28.7507C72.6485 28.412 72.4792 27.8682 72.4792 27.1195C71.8552 27.8682 71.1243 28.412 70.2864 28.7507C69.4664 29.0716 68.575 29.232 67.6123 29.232C66.9884 29.232 66.3912 29.1607 65.8207 29.0181C65.2681 28.8755 64.7867 28.6526 64.3767 28.3496C63.9667 28.0465 63.6369 27.6543 63.3873 27.173C63.1556 26.6738 63.0397 26.0766 63.0397 25.3813C63.0397 24.597 63.1734 23.9552 63.4408 23.456C63.7082 22.9569 64.0558 22.5557 64.4837 22.2527C64.9294 21.9318 65.4285 21.6911 65.9812 21.5307C66.5516 21.3702 67.131 21.2365 67.7193 21.1296C68.3433 21.0048 68.9316 20.9156 69.4842 20.8622C70.0547 20.7909 70.5538 20.7017 70.9817 20.5948C71.4095 20.47 71.7482 20.3006 71.9978 20.0867C72.2474 19.8549 72.3722 19.5251 72.3722 19.0973C72.3722 18.5981 72.2741 18.197 72.0781 17.8939C71.8998 17.5909 71.6591 17.3591 71.3561 17.1987C71.0708 17.0382 70.741 16.9313 70.3666 16.8778C70.0101 16.8243 69.6536 16.7976 69.297 16.7976C68.3343 16.7976 67.5321 16.9848 66.8903 17.3591C66.2486 17.7157 65.9009 18.402 65.8475 19.4182H63.5745C63.6101 18.5625 63.7884 17.8405 64.1093 17.2522C64.4302 16.6639 64.8581 16.1914 65.3929 15.8349C65.9277 15.4605 66.5338 15.1931 67.2112 15.0327C67.9065 14.8722 68.6463 14.792 69.4307 14.792C70.0547 14.792 70.6697 14.8366 71.2758 14.9257C71.8998 15.0149 72.4613 15.202 72.9605 15.4873C73.4597 15.7547 73.8608 16.138 74.1638 16.6371C74.4669 17.1363 74.6184 17.787 74.6184 18.5892V25.7022C74.6184 26.2371 74.6452 26.6292 74.6986 26.8788C74.77 27.1284 74.9839 27.2532 75.3404 27.2532C75.5365 27.2532 75.7683 27.2086 76.0357 27.1195V28.8844ZM72.3455 21.7981C72.0602 22.012 71.6859 22.1725 71.2223 22.2794C70.7588 22.3686 70.2686 22.4488 69.7516 22.5201C69.2524 22.5736 68.7444 22.6449 68.2274 22.734C67.7104 22.8053 67.2469 22.9301 66.8369 23.1084C66.4268 23.2867 66.0881 23.5451 65.8207 23.8839C65.5711 24.2048 65.4463 24.6504 65.4463 25.2209C65.4463 25.5953 65.5177 25.9162 65.6603 26.1836C65.8207 26.4331 66.0168 26.6382 66.2486 26.7986C66.4981 26.9591 66.7834 27.0749 67.1043 27.1462C67.4252 27.2175 67.7639 27.2532 68.1204 27.2532C68.8692 27.2532 69.5109 27.1552 70.0458 26.9591C70.5806 26.7451 71.0173 26.4866 71.3561 26.1836C71.6948 25.8627 71.9443 25.524 72.1048 25.1674C72.2652 24.7931 72.3455 24.4454 72.3455 24.1245V21.7981ZM79.5416 24.5791H77.2687C77.3043 25.4348 77.4826 26.1657 77.8035 26.7719C78.1244 27.3602 78.5522 27.8415 79.087 28.2159C79.6219 28.5724 80.2369 28.8309 80.9322 28.9913C81.6274 29.1518 82.3583 29.232 83.1249 29.232C83.8202 29.232 84.5154 29.1607 85.2107 29.0181C85.9238 28.8933 86.5566 28.6615 87.1093 28.3228C87.6797 27.9841 88.1343 27.5384 88.4731 26.9858C88.8296 26.4331 89.0079 25.7379 89.0079 24.9C89.0079 24.2404 88.8742 23.6878 88.6068 23.2421C88.3572 22.7964 88.0185 22.431 87.5906 22.1457C87.1806 21.8427 86.6992 21.602 86.1466 21.4237C85.6118 21.2454 85.0591 21.0939 84.4887 20.9691C83.9539 20.8443 83.4191 20.7285 82.8842 20.6215C82.3494 20.4967 81.8681 20.3541 81.4402 20.1936C81.0124 20.0154 80.6558 19.8014 80.3706 19.5519C80.1032 19.2845 79.9695 18.9547 79.9695 18.5625C79.9695 18.2059 80.0586 17.9207 80.2369 17.7068C80.4152 17.475 80.6469 17.2967 80.9322 17.1719C81.2174 17.0293 81.5294 16.9313 81.8681 16.8778C82.2246 16.8243 82.5723 16.7976 82.911 16.7976C83.2853 16.7976 83.6508 16.8421 84.0073 16.9313C84.3817 17.0026 84.7204 17.1274 85.0235 17.3056C85.3266 17.4839 85.5761 17.7246 85.7722 18.0276C85.9683 18.3129 86.0842 18.6783 86.1199 19.124H88.3928C88.3393 18.2861 88.1611 17.5909 87.858 17.0382C87.555 16.4678 87.1449 16.0221 86.6279 15.7012C86.1288 15.3625 85.5494 15.1307 84.8898 15.0059C84.2302 14.8633 83.5082 14.792 82.7238 14.792C82.1177 14.792 81.5026 14.8722 80.8787 15.0327C80.2726 15.1753 79.7199 15.4071 79.2208 15.7279C78.7394 16.031 78.3383 16.4321 78.0174 16.9313C77.7144 17.4304 77.5628 18.0276 77.5628 18.7229C77.5628 19.6143 77.7857 20.3095 78.2313 20.8087C78.677 21.3078 79.2297 21.7 79.8893 21.9853C80.5667 22.2527 81.2976 22.4666 82.082 22.6271C82.8664 22.7697 83.5884 22.939 84.248 23.1351C84.9254 23.3134 85.487 23.5541 85.9327 23.8571C86.3784 24.1602 86.6012 24.6059 86.6012 25.1942C86.6012 25.622 86.4942 25.9786 86.2803 26.2638C86.0664 26.5312 85.7901 26.7362 85.4513 26.8788C85.1305 27.0214 84.7739 27.1195 84.3817 27.173C83.9895 27.2265 83.6151 27.2532 83.2586 27.2532C82.7951 27.2532 82.3405 27.2086 81.8948 27.1195C81.467 27.0304 81.0748 26.8877 80.7182 26.6916C80.3795 26.4777 80.1032 26.2014 79.8893 25.8627C79.6753 25.5061 79.5595 25.0783 79.5416 24.5791ZM91.6552 9.84498V28.9379H93.9282V23.6967L96.0674 21.7179L100.801 28.9379H103.689L97.8056 20.1402L103.287 15.1129H100.239L93.9282 21.1563V9.84498H91.6552ZM105.522 9.84498V28.9379H107.795V9.84498H105.522ZM116.744 30.783C116.477 31.4604 116.209 32.0309 115.942 32.4944C115.692 32.9579 115.407 33.3323 115.086 33.6175C114.783 33.9206 114.436 34.1345 114.043 34.2593C113.669 34.4019 113.232 34.4732 112.733 34.4732C112.466 34.4732 112.198 34.4554 111.931 34.4197C111.664 34.3841 111.405 34.3217 111.155 34.2325V32.1468C111.352 32.2359 111.574 32.3072 111.824 32.3607C112.091 32.432 112.314 32.4676 112.493 32.4676C112.956 32.4676 113.339 32.3518 113.642 32.12C113.963 31.9061 114.204 31.5941 114.364 31.1841L115.3 28.8576L109.818 15.1129H112.386L116.423 26.4242H116.477L120.354 15.1129H122.761L116.744 30.783Z"
        fill="black" />
    <defs>
        <clipPath id="clip0_3_34">
            <rect width="34.7006" height="37.4578" fill="white" />
        </clipPath>
    </defs>
</svg>