<svg width="156" height="40" viewBox="0 0 156 40" fill="none" xmlns="http://www.w3.org/2000/svg">
    <g clip-path="url(#clip0_141_103)">
        <path
            d="M0 7.47525C0.0484211 9.16085 -0.0639524 10.7341 0.173585 12.2525C0.519842 14.4707 1.8866 15.9946 4.01987 16.7666C4.93621 17.0983 5.86444 17.4034 6.80271 17.6638C7.27961 17.7963 7.43858 18.0091 7.44041 18.5125C7.45959 23.1354 7.50984 27.7582 7.54913 32.3811C7.57197 35.0369 9.13149 37.1811 11.6503 38.0061C13.1075 38.4839 14.5674 38.9563 16.106 39.4579C16.1124 39.033 16.1261 38.6694 16.1224 38.3049C16.0575 31.1934 15.9488 24.0819 15.947 16.9704C15.947 14.6589 14.2431 12.0332 11.7947 11.2941C8.10003 10.1777 4.44469 8.92332 0.772911 7.72741C0.561868 7.65888 0.351738 7.59036 0 7.47525Z"
            fill="#35355B" />
        <path
            d="M34.7007 7.47525C34.6522 9.16085 34.7646 10.7341 34.5271 12.2525C34.1808 14.4707 32.8141 15.9946 30.6808 16.7666C29.7644 17.0983 28.8362 17.4034 27.8979 17.6638C27.421 17.7963 27.2621 18.0091 27.2602 18.5125C27.2411 23.1354 27.1908 27.7582 27.1515 32.3811C27.1287 35.0369 25.5692 37.1811 23.0503 38.0061C21.5931 38.4839 20.1332 38.9563 18.5947 39.4579C18.5883 39.033 18.5746 38.6694 18.5782 38.3049C18.6431 31.1934 18.7518 24.0819 18.7537 16.9704C18.7537 14.6589 20.4575 12.0332 22.906 11.2941C26.6024 10.1777 30.2569 8.92332 33.9287 7.72741C34.1379 7.65888 34.3489 7.59036 34.7007 7.47525Z"
            fill="#35355B" />
        <path d="M17.2462 11.052C19.7459 11.052 21.7722 9.02565 21.7722 6.526C21.7722 4.02636 19.7459 2 17.2462 2C14.7466 2 12.7202 4.02636 12.7202 6.526C12.7202 9.02565 14.7466 11.052 17.2462 11.052Z" fill="#89216B" />
    </g>
    <path
        d="M64.2459 10.335V13.3567H59.2722V29H55.5285V13.3567H50.5547V10.335H64.2459ZM66.0148 21.5393C66.0148 20.0419 66.3089 18.7137 66.8972 17.555C67.5034 16.3962 68.3145 15.5048 69.3306 14.8809C70.3646 14.2569 71.5145 13.945 72.7802 13.945C73.8855 13.945 74.8482 14.1678 75.6682 14.6135C76.5061 15.0592 77.1746 15.6207 77.6738 16.2981V14.1856H81.4442V29H77.6738V26.834C77.1924 27.5293 76.5239 28.1086 75.6682 28.5721C74.8303 29.0178 73.8587 29.2407 72.7535 29.2407C71.5056 29.2407 70.3646 28.9198 69.3306 28.278C68.3145 27.6362 67.5034 26.736 66.8972 25.5772C66.3089 24.4006 66.0148 23.0546 66.0148 21.5393ZM77.6738 21.5928C77.6738 20.6836 77.4955 19.9081 77.1389 19.2664C76.7824 18.6068 76.3011 18.1076 75.6949 17.7689C75.0888 17.4123 74.4381 17.2341 73.7429 17.2341C73.0476 17.2341 72.4058 17.4034 71.8175 17.7421C71.2292 18.0809 70.7479 18.58 70.3735 19.2396C70.017 19.8814 69.8387 20.648 69.8387 21.5393C69.8387 22.4307 70.017 23.2151 70.3735 23.8925C70.7479 24.5521 71.2292 25.0602 71.8175 25.4167C72.4237 25.7733 73.0654 25.9516 73.7429 25.9516C74.4381 25.9516 75.0888 25.7822 75.6949 25.4435C76.3011 25.0869 76.7824 24.5878 77.1389 23.946C77.4955 23.2864 77.6738 22.502 77.6738 21.5928ZM84.1379 21.5393C84.1379 20.0419 84.4321 18.7137 85.0204 17.555C85.6265 16.3962 86.4376 15.5048 87.4538 14.8809C88.4877 14.2569 89.6376 13.945 90.9033 13.945C92.0086 13.945 92.9713 14.1678 93.7913 14.6135C94.6292 15.0592 95.2977 15.6207 95.7969 16.2981V14.1856H99.5673V29H95.7969V26.834C95.3155 27.5293 94.647 28.1086 93.7913 28.5721C92.9534 29.0178 91.9819 29.2407 90.8766 29.2407C89.6287 29.2407 88.4877 28.9198 87.4538 28.278C86.4376 27.6362 85.6265 26.736 85.0204 25.5772C84.4321 24.4006 84.1379 23.0546 84.1379 21.5393ZM95.7969 21.5928C95.7969 20.6836 95.6186 19.9081 95.2621 19.2664C94.9055 18.6068 94.4242 18.1076 93.8181 17.7689C93.2119 17.4123 92.5612 17.2341 91.866 17.2341C91.1707 17.2341 90.529 17.4034 89.9407 17.7421C89.3524 18.0809 88.871 18.58 88.4967 19.2396C88.1401 19.8814 87.9618 20.648 87.9618 21.5393C87.9618 22.4307 88.1401 23.2151 88.4967 23.8925C88.871 24.5521 89.3524 25.0602 89.9407 25.4167C90.5468 25.7733 91.1886 25.9516 91.866 25.9516C92.5612 25.9516 93.2119 25.7822 93.8181 25.4435C94.4242 25.0869 94.9055 24.5878 95.2621 23.946C95.6186 23.2864 95.7969 22.502 95.7969 21.5928ZM108.893 29.2407C107.68 29.2407 106.593 29.0267 105.63 28.5989C104.668 28.1532 103.901 27.556 103.331 26.8073C102.778 26.0585 102.475 25.2296 102.421 24.3204H106.192C106.263 24.8908 106.54 25.3633 107.021 25.7376C107.52 26.112 108.135 26.2992 108.866 26.2992C109.579 26.2992 110.132 26.1566 110.524 25.8713C110.934 25.5861 111.139 25.2206 111.139 24.775C111.139 24.2936 110.889 23.9371 110.39 23.7053C109.909 23.4558 109.133 23.1883 108.064 22.9031C106.958 22.6357 106.049 22.3594 105.336 22.0741C104.641 21.7889 104.035 21.3521 103.518 20.7639C103.019 20.1756 102.769 19.3822 102.769 18.3839C102.769 17.5639 103.001 16.8151 103.464 16.1377C103.946 15.4603 104.623 14.9255 105.497 14.5333C106.388 14.1411 107.431 13.945 108.625 13.945C110.39 13.945 111.799 14.3906 112.85 15.282C113.902 16.1555 114.482 17.341 114.589 18.8385H111.005C110.952 18.2502 110.702 17.7867 110.257 17.448C109.829 17.0915 109.249 16.9132 108.518 16.9132C107.841 16.9132 107.315 17.038 106.941 17.2876C106.584 17.5371 106.406 17.8848 106.406 18.3304C106.406 18.8296 106.655 19.2129 107.155 19.4803C107.654 19.7299 108.429 19.9884 109.481 20.2558C110.551 20.5232 111.433 20.7995 112.128 21.0847C112.824 21.37 113.421 21.8157 113.92 22.4218C114.437 23.0101 114.704 23.7945 114.722 24.775C114.722 25.6307 114.482 26.3972 114 27.0747C113.537 27.7521 112.859 28.2869 111.968 28.6791C111.094 29.0535 110.069 29.2407 108.893 29.2407ZM126.566 29L121.539 22.6892V29H117.795V9.21185H121.539V20.4697L126.513 14.1856H131.38L124.855 21.6196L131.433 29H126.566ZM137.155 9.21185V29H133.411V9.21185H137.155ZM155.027 14.1856L145.855 36.0061H141.87L145.079 28.6256L139.143 14.1856H143.341L147.165 24.5343L151.042 14.1856H155.027Z"
        fill="#35355B" />
    <defs>
        <clipPath id="clip0_141_103">
            <rect width="34.7006" height="37.4578" fill="white" transform="translate(0 2)" />
        </clipPath>
    </defs>
</svg>