<svg width="333" height="111" viewBox="0 0 333 111" fill="none" xmlns="http://www.w3.org/2000/svg">
    <rect width="82" height="82" rx="41" fill="#4F1DED" />
    <g filter="url(#filter0_d_369_412)">
        <path
            d="M37.8848 62.9244C37.8617 60.4664 37.8349 58.0063 37.808 55.5448C37.7372 49.056 37.6663 42.5578 37.6646 36.0639V36.0635C37.6646 33.6903 35.8491 30.9414 33.3908 30.1993L33.3904 30.1992C30.0325 29.1845 26.6891 28.0783 23.3676 26.9792C22.3009 26.6263 21.2365 26.2741 20.1745 25.9259C20.1745 25.9526 20.1744 25.9791 20.1744 26.0056C20.1716 27.361 20.1692 28.543 20.3603 29.764L20.3603 29.7645C20.7131 32.0247 22.0554 33.5659 24.3354 34.391L24.3355 34.3911C25.4866 34.8077 26.6432 35.1875 27.8052 35.51L27.8055 35.5101C28.2404 35.6309 28.8234 35.8628 29.243 36.4219C29.6582 36.9752 29.7226 37.5961 29.7242 38.0415M37.8848 62.9244L27.4041 36.9554C28.0174 37.1257 28.2219 37.3995 28.2242 38.0469C28.2424 42.4415 28.2825 46.836 28.3226 51.2305C28.3367 52.7815 28.3509 54.3324 28.364 55.8834M37.8848 62.9244C37.8197 62.9033 37.7548 62.8821 37.6899 62.861C36.4766 62.4666 35.2916 62.0813 34.106 61.6925L34.1055 61.6924C31.482 60.8331 29.8879 58.6468 29.864 55.8705M37.8848 62.9244L28.364 55.8834M29.7242 38.0415L28.2251 38.0469L29.7242 38.0407C29.7242 38.041 29.7242 38.0412 29.7242 38.0415ZM29.7242 38.0415C29.7424 42.4317 29.7824 46.8204 29.8225 51.2135C29.8366 52.7652 29.8508 54.3175 29.864 55.8705M29.864 55.8705L28.364 55.8834M29.864 55.8705C29.864 55.8705 29.864 55.8706 29.864 55.8707L28.364 55.8834"
            fill="white" stroke="white" stroke-width="3" />
        <path
            d="M52.0747 55.8706C52.0879 54.3176 52.1021 52.7653 52.1162 51.2136C52.1563 46.8202 52.1963 42.4312 52.2145 38.0407C52.2162 37.5954 52.2808 36.9749 52.6957 36.4219C53.1153 35.8628 53.6983 35.6309 54.1332 35.5101L54.1336 35.51C55.2955 35.1875 56.4521 34.8077 57.6032 34.3911L57.6033 34.391C59.8833 33.5659 61.2256 32.0247 61.5784 29.7645L61.5785 29.764C61.7695 28.543 61.7671 27.361 61.7643 26.0056C61.7643 25.9792 61.7642 25.9528 61.7642 25.9263C60.704 26.2739 59.6413 26.6256 58.5763 26.978C55.2538 28.0774 51.9091 29.1841 48.5482 30.1992L48.548 30.1993C46.0896 30.9414 44.2741 33.6903 44.2741 36.0635V36.0639C44.2724 42.5578 44.2015 49.056 44.1307 55.5448C44.1038 58.0063 44.077 60.4664 44.0539 62.9244C44.1189 62.9033 44.1839 62.8822 44.2488 62.8611C45.462 62.4666 46.6471 62.0813 47.8328 61.6925L47.8332 61.6924C50.4567 60.8331 52.0508 58.6469 52.0747 55.8706ZM52.0747 55.8706C52.0747 55.8706 52.0747 55.8705 52.0747 55.8705L53.5747 55.8834L52.0747 55.8706Z"
            fill="white" stroke="white" stroke-width="3" />
        <path d="M45.1564 22.6309C45.1564 25.0173 43.2218 26.9518 40.8355 26.9518C38.4491 26.9518 36.5145 25.0173 36.5145 22.6309C36.5145 20.2445 38.4491 18.3099 40.8355 18.3099C43.2218 18.3099 45.1564 20.2445 45.1564 22.6309Z" fill="white" stroke="white" stroke-width="3" />
    </g>
    <path
        d="M124.601 66.576C122.979 66.576 121.742 66.128 120.889 65.232C120.035 64.336 119.609 63.0773 119.609 61.456V29.072H108.281C106.958 29.072 105.934 28.7093 105.209 27.984C104.483 27.2587 104.12 26.256 104.12 24.976C104.12 23.6533 104.483 22.6507 105.209 21.968C105.934 21.2427 106.958 20.88 108.281 20.88H140.857C142.179 20.88 143.203 21.2427 143.929 21.968C144.654 22.6507 145.017 23.6533 145.017 24.976C145.017 26.256 144.654 27.2587 143.929 27.984C143.203 28.7093 142.179 29.072 140.857 29.072H129.529V61.456C129.529 63.0773 129.102 64.336 128.249 65.232C127.438 66.128 126.222 66.576 124.601 66.576ZM154.024 66.704C151.72 66.704 149.65 66.256 147.816 65.36C145.981 64.464 144.552 63.248 143.528 61.712C142.504 60.176 141.992 58.448 141.992 56.528C141.992 54.224 142.589 52.4107 143.784 51.088C144.978 49.7227 146.92 48.7627 149.608 48.208C152.296 47.6107 155.858 47.312 160.296 47.312H163.688V52.304H160.36C158.184 52.304 156.413 52.432 155.048 52.688C153.725 52.9013 152.765 53.2853 152.168 53.84C151.613 54.3947 151.336 55.1627 151.336 56.144C151.336 57.3387 151.741 58.32 152.552 59.088C153.405 59.856 154.621 60.24 156.2 60.24C157.437 60.24 158.525 59.9627 159.464 59.408C160.445 58.8107 161.213 58.0213 161.768 57.04C162.322 56.016 162.6 54.864 162.6 53.584V46.224C162.6 44.3467 162.173 43.024 161.32 42.256C160.466 41.4453 159.016 41.04 156.968 41.04C155.816 41.04 154.557 41.1893 153.192 41.488C151.869 41.744 150.397 42.192 148.776 42.832C147.837 43.2587 147.005 43.3653 146.28 43.152C145.554 42.896 145 42.4693 144.616 41.872C144.232 41.232 144.04 40.5493 144.04 39.824C144.04 39.056 144.253 38.3307 144.68 37.648C145.106 36.9227 145.81 36.3893 146.792 36.048C148.797 35.2373 150.674 34.6827 152.424 34.384C154.216 34.0853 155.858 33.936 157.352 33.936C160.637 33.936 163.325 34.4267 165.416 35.408C167.549 36.3467 169.149 37.8187 170.216 39.824C171.282 41.7867 171.816 44.3253 171.816 47.44V61.648C171.816 63.2267 171.432 64.4427 170.664 65.296C169.896 66.1493 168.786 66.576 167.336 66.576C165.885 66.576 164.754 66.1493 163.944 65.296C163.176 64.4427 162.792 63.2267 162.792 61.648V59.28L163.24 59.664C162.984 61.1147 162.429 62.3733 161.576 63.44C160.765 64.464 159.72 65.2747 158.44 65.872C157.16 66.4267 155.688 66.704 154.024 66.704ZM189.649 66.704C187.345 66.704 185.275 66.256 183.441 65.36C181.606 64.464 180.177 63.248 179.153 61.712C178.129 60.176 177.617 58.448 177.617 56.528C177.617 54.224 178.214 52.4107 179.409 51.088C180.603 49.7227 182.545 48.7627 185.233 48.208C187.921 47.6107 191.483 47.312 195.921 47.312H199.313V52.304H195.985C193.809 52.304 192.038 52.432 190.673 52.688C189.35 52.9013 188.39 53.2853 187.793 53.84C187.238 54.3947 186.961 55.1627 186.961 56.144C186.961 57.3387 187.366 58.32 188.177 59.088C189.03 59.856 190.246 60.24 191.825 60.24C193.062 60.24 194.15 59.9627 195.089 59.408C196.07 58.8107 196.838 58.0213 197.393 57.04C197.947 56.016 198.225 54.864 198.225 53.584V46.224C198.225 44.3467 197.798 43.024 196.945 42.256C196.091 41.4453 194.641 41.04 192.593 41.04C191.441 41.04 190.182 41.1893 188.817 41.488C187.494 41.744 186.022 42.192 184.401 42.832C183.462 43.2587 182.63 43.3653 181.905 43.152C181.179 42.896 180.625 42.4693 180.241 41.872C179.857 41.232 179.665 40.5493 179.665 39.824C179.665 39.056 179.878 38.3307 180.305 37.648C180.731 36.9227 181.435 36.3893 182.417 36.048C184.422 35.2373 186.299 34.6827 188.049 34.384C189.841 34.0853 191.483 33.936 192.977 33.936C196.262 33.936 198.95 34.4267 201.041 35.408C203.174 36.3467 204.774 37.8187 205.841 39.824C206.907 41.7867 207.441 44.3253 207.441 47.44V61.648C207.441 63.2267 207.057 64.4427 206.289 65.296C205.521 66.1493 204.411 66.576 202.961 66.576C201.51 66.576 200.379 66.1493 199.569 65.296C198.801 64.4427 198.417 63.2267 198.417 61.648V59.28L198.865 59.664C198.609 61.1147 198.054 62.3733 197.201 63.44C196.39 64.464 195.345 65.2747 194.065 65.872C192.785 66.4267 191.313 66.704 189.649 66.704ZM226.682 66.704C224.804 66.704 222.863 66.5333 220.858 66.192C218.895 65.8507 217.103 65.2747 215.482 64.464C214.628 64.0373 214.01 63.504 213.626 62.864C213.284 62.1813 213.135 61.4987 213.178 60.816C213.22 60.1333 213.434 59.5147 213.818 58.96C214.244 58.4053 214.778 58.0427 215.418 57.872C216.1 57.6587 216.847 57.7227 217.658 58.064C219.407 58.7893 221.007 59.3013 222.458 59.6C223.908 59.8987 225.338 60.048 226.746 60.048C228.58 60.048 229.903 59.7707 230.714 59.216C231.567 58.6187 231.994 57.8507 231.994 56.912C231.994 56.0587 231.716 55.4187 231.162 54.992C230.607 54.5653 229.796 54.2667 228.73 54.096L222.01 52.88C219.364 52.4107 217.316 51.4507 215.866 50C214.458 48.5067 213.754 46.608 213.754 44.304C213.754 42.1707 214.351 40.336 215.546 38.8C216.74 37.2213 218.383 36.0267 220.474 35.216C222.607 34.3627 225.018 33.936 227.706 33.936C229.626 33.936 231.396 34.1067 233.018 34.448C234.639 34.7893 236.196 35.344 237.69 36.112C238.458 36.496 238.991 37.008 239.29 37.648C239.631 38.288 239.738 38.9493 239.61 39.632C239.524 40.3147 239.268 40.9333 238.842 41.488C238.415 42.0427 237.86 42.4053 237.178 42.576C236.538 42.7467 235.791 42.6613 234.938 42.32C233.572 41.68 232.314 41.232 231.162 40.976C230.01 40.6773 228.9 40.528 227.833 40.528C225.914 40.528 224.527 40.848 223.674 41.488C222.82 42.0853 222.394 42.8533 222.394 43.792C222.394 44.5173 222.628 45.136 223.098 45.648C223.61 46.1173 224.378 46.4373 225.402 46.608L232.122 47.824C234.895 48.2933 237.007 49.232 238.458 50.64C239.908 52.0053 240.634 53.8827 240.634 56.272C240.634 59.5147 239.354 62.0747 236.794 63.952C234.276 65.7867 230.906 66.704 226.682 66.704ZM251.014 66.576C249.435 66.576 248.219 66.1493 247.366 65.296C246.555 64.4427 246.15 63.2267 246.15 61.648V25.232C246.15 23.6107 246.555 22.3947 247.366 21.584C248.219 20.7307 249.435 20.304 251.014 20.304C252.55 20.304 253.723 20.7307 254.534 21.584C255.387 22.3947 255.814 23.6107 255.814 25.232V47.568H255.942L265.222 37.264C266.16 36.1973 267.014 35.408 267.782 34.896C268.592 34.3413 269.659 34.064 270.982 34.064C272.304 34.064 273.307 34.4053 273.99 35.088C274.715 35.7707 275.078 36.6027 275.078 37.584C275.12 38.5227 274.715 39.4827 273.862 40.464L264.07 51.408V47.76L274.95 60.304C275.76 61.2853 276.102 62.2667 275.974 63.248C275.888 64.2293 275.462 65.04 274.694 65.68C273.926 66.2773 272.944 66.576 271.75 66.576C270.299 66.576 269.126 66.2987 268.23 65.744C267.376 65.1893 266.502 64.336 265.606 63.184L255.942 52.432H255.814V61.648C255.814 64.9333 254.214 66.576 251.014 66.576ZM293.165 66.704C289.368 66.704 286.53 65.6587 284.653 63.568C282.776 61.4347 281.837 58.2773 281.837 54.096V25.232C281.837 23.6107 282.242 22.3947 283.053 21.584C283.906 20.7307 285.122 20.304 286.701 20.304C288.237 20.304 289.41 20.7307 290.221 21.584C291.074 22.3947 291.501 23.6107 291.501 25.232V53.712C291.501 55.4613 291.864 56.7627 292.589 57.616C293.357 58.4267 294.36 58.832 295.597 58.832C295.938 58.832 296.258 58.8107 296.557 58.768C296.856 58.7253 297.176 58.704 297.517 58.704C298.2 58.6187 298.669 58.832 298.925 59.344C299.224 59.8133 299.373 60.7733 299.373 62.224C299.373 63.504 299.117 64.4853 298.605 65.168C298.093 65.808 297.304 66.2347 296.237 66.448C295.81 66.4907 295.32 66.5333 294.765 66.576C294.21 66.6613 293.677 66.704 293.165 66.704ZM310.851 78.096C309.741 78.096 308.824 77.7973 308.099 77.2C307.373 76.6027 306.947 75.8133 306.819 74.832C306.691 73.8933 306.861 72.8907 307.331 71.824L311.619 62.352V66.32L300.291 40.336C299.864 39.2267 299.715 38.2027 299.843 37.264C300.013 36.2827 300.483 35.5147 301.251 34.96C302.061 34.3627 303.171 34.064 304.579 34.064C305.731 34.064 306.648 34.3413 307.331 34.896C308.056 35.408 308.717 36.4107 309.315 37.904L316.867 57.104H314.819L322.627 37.84C323.224 36.3893 323.885 35.408 324.611 34.896C325.379 34.3413 326.403 34.064 327.683 34.064C328.792 34.064 329.667 34.3627 330.307 34.96C330.989 35.5147 331.395 36.2613 331.523 37.2C331.693 38.1387 331.523 39.1627 331.011 40.272L315.971 74.384C315.331 75.8347 314.605 76.816 313.795 77.328C313.027 77.84 312.045 78.096 310.851 78.096Z"
        fill="#4F1DED" />
    <rect x="245" y="87" width="88" height="24" rx="12" fill="#4F1DED" />
    <path
        d="M271.254 104.176C270.806 104.176 270.347 104.139 269.878 104.064C269.419 104 268.977 103.904 268.55 103.776C268.134 103.648 267.761 103.488 267.43 103.296C267.195 103.168 267.03 103.003 266.934 102.8C266.838 102.587 266.801 102.373 266.822 102.16C266.854 101.947 266.934 101.76 267.062 101.6C267.201 101.429 267.371 101.323 267.574 101.28C267.787 101.227 268.022 101.264 268.278 101.392C268.715 101.637 269.19 101.819 269.702 101.936C270.225 102.053 270.742 102.112 271.254 102.112C272.033 102.112 272.587 101.995 272.918 101.76C273.249 101.515 273.414 101.211 273.414 100.848C273.414 100.539 273.297 100.293 273.062 100.112C272.827 99.9307 272.417 99.776 271.83 99.648L270.022 99.264C268.998 99.0507 268.235 98.688 267.734 98.176C267.243 97.6533 266.998 96.9707 266.998 96.128C266.998 95.5947 267.11 95.1093 267.334 94.672C267.558 94.2347 267.873 93.856 268.278 93.536C268.683 93.216 269.163 92.9707 269.718 92.8C270.283 92.6293 270.902 92.544 271.574 92.544C272.171 92.544 272.758 92.6187 273.334 92.768C273.91 92.9067 274.417 93.1147 274.854 93.392C275.067 93.52 275.211 93.6853 275.286 93.888C275.371 94.08 275.398 94.2773 275.366 94.48C275.345 94.672 275.265 94.8427 275.126 94.992C274.998 95.1413 274.833 95.2373 274.63 95.28C274.427 95.3227 274.182 95.2747 273.894 95.136C273.542 94.9547 273.169 94.8213 272.774 94.736C272.379 94.6507 271.974 94.608 271.558 94.608C271.11 94.608 270.726 94.6667 270.406 94.784C270.097 94.9013 269.857 95.0667 269.686 95.28C269.526 95.4933 269.446 95.7387 269.446 96.016C269.446 96.3253 269.558 96.576 269.782 96.768C270.006 96.96 270.395 97.1147 270.95 97.232L272.758 97.616C273.803 97.84 274.582 98.2027 275.094 98.704C275.606 99.1947 275.862 99.8453 275.862 100.656C275.862 101.189 275.755 101.675 275.542 102.112C275.329 102.539 275.019 102.907 274.614 103.216C274.209 103.525 273.723 103.765 273.158 103.936C272.593 104.096 271.958 104.176 271.254 104.176ZM278.48 104.144C278.085 104.144 277.781 104.037 277.568 103.824C277.365 103.611 277.264 103.307 277.264 102.912V93.808C277.264 93.4027 277.365 93.0987 277.568 92.896C277.781 92.6827 278.085 92.576 278.48 92.576C278.864 92.576 279.157 92.6827 279.36 92.896C279.573 93.0987 279.68 93.4027 279.68 93.808V97.616H279.456C279.701 97.0933 280.064 96.6933 280.544 96.416C281.035 96.128 281.589 95.984 282.208 95.984C282.837 95.984 283.355 96.1067 283.76 96.352C284.165 96.5867 284.469 96.9493 284.672 97.44C284.875 97.92 284.976 98.5333 284.976 99.28V102.912C284.976 103.307 284.869 103.611 284.656 103.824C284.453 104.037 284.155 104.144 283.76 104.144C283.376 104.144 283.077 104.037 282.864 103.824C282.661 103.611 282.56 103.307 282.56 102.912V99.392C282.56 98.848 282.459 98.4587 282.256 98.224C282.064 97.9787 281.765 97.856 281.36 97.856C280.848 97.856 280.437 98.016 280.128 98.336C279.829 98.656 279.68 99.0827 279.68 99.616V102.912C279.68 103.733 279.28 104.144 278.48 104.144ZM290.556 104.176C289.713 104.176 288.977 104.011 288.348 103.68C287.729 103.349 287.249 102.875 286.908 102.256C286.566 101.637 286.396 100.907 286.396 100.064C286.396 99.4347 286.492 98.8693 286.684 98.368C286.876 97.8667 287.153 97.44 287.516 97.088C287.889 96.7253 288.332 96.4533 288.844 96.272C289.356 96.08 289.926 95.984 290.556 95.984C291.398 95.984 292.129 96.1493 292.748 96.48C293.377 96.8107 293.862 97.28 294.204 97.888C294.556 98.496 294.732 99.2213 294.732 100.064C294.732 100.704 294.63 101.275 294.428 101.776C294.236 102.277 293.958 102.709 293.596 103.072C293.233 103.435 292.79 103.712 292.268 103.904C291.756 104.085 291.185 104.176 290.556 104.176ZM290.556 102.368C290.908 102.368 291.212 102.283 291.468 102.112C291.724 101.941 291.926 101.691 292.076 101.36C292.225 101.019 292.3 100.587 292.3 100.064C292.3 99.2853 292.14 98.7147 291.82 98.352C291.5 97.9787 291.078 97.792 290.556 97.792C290.214 97.792 289.91 97.872 289.644 98.032C289.388 98.192 289.185 98.4427 289.036 98.784C288.897 99.1147 288.828 99.5413 288.828 100.064C288.828 100.843 288.988 101.424 289.308 101.808C289.628 102.181 290.044 102.368 290.556 102.368ZM297.417 107.024C297.023 107.024 296.719 106.917 296.505 106.704C296.303 106.501 296.201 106.197 296.201 105.792V97.232C296.201 96.8373 296.303 96.5387 296.505 96.336C296.719 96.1227 297.012 96.016 297.385 96.016C297.78 96.016 298.079 96.1227 298.281 96.336C298.484 96.5387 298.585 96.8373 298.585 97.232V98.32L298.409 97.696C298.569 97.184 298.889 96.7733 299.369 96.464C299.86 96.144 300.42 95.984 301.049 95.984C301.732 95.984 302.329 96.1493 302.841 96.48C303.364 96.8107 303.769 97.28 304.057 97.888C304.345 98.496 304.489 99.2213 304.489 100.064C304.489 100.907 304.345 101.637 304.057 102.256C303.769 102.875 303.369 103.349 302.857 103.68C302.345 104.011 301.743 104.176 301.049 104.176C300.431 104.176 299.881 104.027 299.401 103.728C298.921 103.419 298.596 103.019 298.425 102.528H298.617V105.792C298.617 106.197 298.511 106.501 298.297 106.704C298.095 106.917 297.801 107.024 297.417 107.024ZM300.329 102.368C300.671 102.368 300.969 102.283 301.225 102.112C301.492 101.941 301.695 101.691 301.833 101.36C301.983 101.019 302.057 100.587 302.057 100.064C302.057 99.2853 301.897 98.7147 301.577 98.352C301.257 97.9787 300.841 97.792 300.329 97.792C299.988 97.792 299.684 97.872 299.417 98.032C299.161 98.192 298.959 98.4427 298.809 98.784C298.66 99.1147 298.585 99.5413 298.585 100.064C298.585 100.843 298.745 101.424 299.065 101.808C299.385 102.181 299.807 102.368 300.329 102.368ZM308.975 104.176C308.506 104.176 308.02 104.133 307.519 104.048C307.028 103.963 306.58 103.819 306.175 103.616C305.962 103.509 305.807 103.376 305.711 103.216C305.626 103.045 305.588 102.875 305.599 102.704C305.61 102.533 305.663 102.379 305.759 102.24C305.866 102.101 305.999 102.011 306.159 101.968C306.33 101.915 306.516 101.931 306.719 102.016C307.156 102.197 307.556 102.325 307.919 102.4C308.282 102.475 308.639 102.512 308.991 102.512C309.45 102.512 309.78 102.443 309.983 102.304C310.196 102.155 310.303 101.963 310.303 101.728C310.303 101.515 310.234 101.355 310.095 101.248C309.956 101.141 309.754 101.067 309.487 101.024L307.807 100.72C307.146 100.603 306.634 100.363 306.271 100C305.919 99.6267 305.743 99.152 305.743 98.576C305.743 98.0427 305.892 97.584 306.191 97.2C306.49 96.8053 306.9 96.5067 307.423 96.304C307.956 96.0907 308.559 95.984 309.231 95.984C309.711 95.984 310.154 96.0267 310.559 96.112C310.964 96.1973 311.354 96.336 311.727 96.528C311.919 96.624 312.052 96.752 312.127 96.912C312.212 97.072 312.239 97.2373 312.207 97.408C312.186 97.5787 312.122 97.7333 312.015 97.872C311.908 98.0107 311.77 98.1013 311.599 98.144C311.439 98.1867 311.252 98.1653 311.039 98.08C310.698 97.92 310.383 97.808 310.095 97.744C309.807 97.6693 309.53 97.632 309.263 97.632C308.783 97.632 308.436 97.712 308.223 97.872C308.01 98.0213 307.903 98.2133 307.903 98.448C307.903 98.6293 307.962 98.784 308.079 98.912C308.207 99.0293 308.399 99.1093 308.655 99.152L310.335 99.456C311.028 99.5733 311.556 99.808 311.919 100.16C312.282 100.501 312.463 100.971 312.463 101.568C312.463 102.379 312.143 103.019 311.503 103.488C310.874 103.947 310.031 104.176 308.975 104.176Z"
        fill="white" />
    <defs>
        <filter id="filter0_d_369_412" x="14.655" y="16.8099" width="52.6287" height="56.1749" filterUnits="userSpaceOnUse" color-interpolation-filters="sRGB">
            <feFlood flood-opacity="0" result="BackgroundImageFix" />
            <feColorMatrix in="SourceAlpha" type="matrix" values="0 0 0 0 0 0 0 0 0 0 0 0 0 0 0 0 0 0 127 0" result="hardAlpha" />
            <feOffset dy="4" />
            <feGaussianBlur stdDeviation="2" />
            <feComposite in2="hardAlpha" operator="out" />
            <feColorMatrix type="matrix" values="0 0 0 0 0 0 0 0 0 0 0 0 0 0 0 0 0 0 0.25 0" />
            <feBlend mode="normal" in2="BackgroundImageFix" result="effect1_dropShadow_369_412" />
            <feBlend mode="normal" in="SourceGraphic" in2="effect1_dropShadow_369_412" result="shape" />
        </filter>
    </defs>
</svg>