<svg width="345" height="111" viewBox="0 0 345 111" fill="none" xmlns="http://www.w3.org/2000/svg">
    <rect width="82" height="82" rx="41" fill="#4F1DED" />
    <g filter="url(#filter0_d_349_395)">
        <path
            d="M37.8848 62.9244C37.8617 60.4665 37.8349 58.0065 37.808 55.5451C37.7372 49.0562 37.6663 42.5579 37.6646 36.0639V36.0635C37.6646 33.6903 35.8491 30.9414 33.3908 30.1993L33.3904 30.1992C30.0325 29.1845 26.6891 28.0783 23.3676 26.9792C22.3009 26.6263 21.2365 26.2741 20.1745 25.9259C20.1745 25.9526 20.1744 25.9791 20.1744 26.0056C20.1716 27.361 20.1692 28.543 20.3603 29.764L20.3603 29.7645C20.7131 32.0247 22.0554 33.5659 24.3354 34.391L24.3355 34.3911C25.4866 34.8077 26.6432 35.1875 27.8052 35.51L27.8055 35.5101C28.2404 35.6309 28.8234 35.8628 29.243 36.4219C29.6582 36.9752 29.7226 37.5961 29.7242 38.0415M37.8848 62.9244L28.2242 38.0469M37.8848 62.9244C37.8866 63.1215 37.8885 63.3187 37.8903 63.5158L37.8903 63.5171C37.8932 63.8071 37.8872 64.0808 37.8802 64.3999C37.8794 64.4326 37.8787 64.4658 37.878 64.4995C38.3695 64.6594 38.866 64.8209 39.3691 64.9849L39.3894 63.4139C38.8816 63.2485 38.3807 63.0857 37.8848 62.9244ZM29.7242 38.0415L28.2242 38.0469M29.7242 38.0415C29.7242 38.0412 29.7242 38.041 29.7242 38.0407L28.2242 38.0469M29.7242 38.0415C29.7424 42.4317 29.7824 46.8205 29.8225 51.2136C29.8366 52.7653 29.8508 54.3175 29.864 55.8705M28.2242 38.0469C28.2424 42.4415 28.2825 46.836 28.3226 51.2305C28.3367 52.7815 28.3509 54.3324 28.364 55.8834M29.864 55.8705L28.364 55.8834M29.864 55.8705C29.864 55.8705 29.864 55.8706 29.864 55.8707L28.364 55.8834M29.864 55.8705L28.364 55.8834"
            fill="white" stroke="white" stroke-width="3" />
        <path
            d="M52.2145 38.0415C52.2161 37.5961 52.2805 36.9752 52.6957 36.4219C53.1153 35.8628 53.6983 35.6309 54.1332 35.5101L54.1336 35.51C55.2955 35.1875 56.4521 34.8077 57.6032 34.3911L57.6033 34.391C59.8833 33.5659 61.2256 32.0247 61.5784 29.7645L61.5785 29.764C61.7695 28.543 61.7671 27.361 61.7643 26.0056C61.7643 25.9792 61.7642 25.9528 61.7642 25.9263C60.704 26.2739 59.6413 26.6256 58.5763 26.978C55.2538 28.0774 51.9091 29.1841 48.5482 30.1992L48.548 30.1993C46.0896 30.9414 44.2741 33.6903 44.2741 36.0635V36.0639C44.2724 42.5578 44.2015 49.056 44.1307 55.5448C44.1038 58.0063 44.077 60.4664 44.0539 62.9244C44.119 62.9033 44.184 62.8821 44.2489 62.861C45.4621 62.4666 46.6471 62.0813 47.8328 61.6925L47.8332 61.6924C50.4567 60.8331 52.0509 58.6468 52.0747 55.8705M52.2145 38.0415C52.2145 38.0412 52.2145 38.041 52.2145 38.0407L53.7145 38.0469L52.2145 38.0415ZM52.2145 38.0415C52.1963 42.4316 52.1563 46.8203 52.1162 51.2133C52.1021 52.7651 52.0879 54.3174 52.0747 55.8705M52.0747 55.8705L53.5747 55.8834M52.0747 55.8705C52.0747 55.8705 52.0747 55.8706 52.0747 55.8706L53.5747 55.8834M53.5747 55.8834C53.5453 59.2991 51.5396 62.0568 48.3001 63.1178L53.5747 55.8834Z"
            fill="white" stroke="white" stroke-width="3" />
        <path d="M45.1564 22.6309C45.1564 25.0173 43.2218 26.9518 40.8355 26.9518C38.4491 26.9518 36.5145 25.0173 36.5145 22.6309C36.5145 20.2445 38.4491 18.3099 40.8355 18.3099C43.2218 18.3099 45.1564 20.2445 45.1564 22.6309Z" fill="white" stroke="white" stroke-width="3" />
    </g>
    <path
        d="M124.601 66.576C122.979 66.576 121.742 66.128 120.889 65.232C120.035 64.336 119.609 63.0773 119.609 61.456V29.072H108.281C106.958 29.072 105.934 28.7093 105.209 27.984C104.483 27.2587 104.12 26.256 104.12 24.976C104.12 23.6533 104.483 22.6507 105.209 21.968C105.934 21.2427 106.958 20.88 108.281 20.88H140.857C142.179 20.88 143.203 21.2427 143.929 21.968C144.654 22.6507 145.017 23.6533 145.017 24.976C145.017 26.256 144.654 27.2587 143.929 27.984C143.203 28.7093 142.179 29.072 140.857 29.072H129.529V61.456C129.529 63.0773 129.102 64.336 128.249 65.232C127.438 66.128 126.222 66.576 124.601 66.576ZM154.024 66.704C151.72 66.704 149.65 66.256 147.816 65.36C145.981 64.464 144.552 63.248 143.528 61.712C142.504 60.176 141.992 58.448 141.992 56.528C141.992 54.224 142.589 52.4107 143.784 51.088C144.978 49.7227 146.92 48.7627 149.608 48.208C152.296 47.6107 155.858 47.312 160.296 47.312H163.688V52.304H160.36C158.184 52.304 156.413 52.432 155.048 52.688C153.725 52.9013 152.765 53.2853 152.168 53.84C151.613 54.3947 151.336 55.1627 151.336 56.144C151.336 57.3387 151.741 58.32 152.552 59.088C153.405 59.856 154.621 60.24 156.2 60.24C157.437 60.24 158.525 59.9627 159.464 59.408C160.445 58.8107 161.213 58.0213 161.768 57.04C162.322 56.016 162.6 54.864 162.6 53.584V46.224C162.6 44.3467 162.173 43.024 161.32 42.256C160.466 41.4453 159.016 41.04 156.968 41.04C155.816 41.04 154.557 41.1893 153.192 41.488C151.869 41.744 150.397 42.192 148.776 42.832C147.837 43.2587 147.005 43.3653 146.28 43.152C145.554 42.896 145 42.4693 144.616 41.872C144.232 41.232 144.04 40.5493 144.04 39.824C144.04 39.056 144.253 38.3307 144.68 37.648C145.106 36.9227 145.81 36.3893 146.792 36.048C148.797 35.2373 150.674 34.6827 152.424 34.384C154.216 34.0853 155.858 33.936 157.352 33.936C160.637 33.936 163.325 34.4267 165.416 35.408C167.549 36.3467 169.149 37.8187 170.216 39.824C171.282 41.7867 171.816 44.3253 171.816 47.44V61.648C171.816 63.2267 171.432 64.4427 170.664 65.296C169.896 66.1493 168.786 66.576 167.336 66.576C165.885 66.576 164.754 66.1493 163.944 65.296C163.176 64.4427 162.792 63.2267 162.792 61.648V59.28L163.24 59.664C162.984 61.1147 162.429 62.3733 161.576 63.44C160.765 64.464 159.72 65.2747 158.44 65.872C157.16 66.4267 155.688 66.704 154.024 66.704ZM189.649 66.704C187.345 66.704 185.275 66.256 183.441 65.36C181.606 64.464 180.177 63.248 179.153 61.712C178.129 60.176 177.617 58.448 177.617 56.528C177.617 54.224 178.214 52.4107 179.409 51.088C180.603 49.7227 182.545 48.7627 185.233 48.208C187.921 47.6107 191.483 47.312 195.921 47.312H199.313V52.304H195.985C193.809 52.304 192.038 52.432 190.673 52.688C189.35 52.9013 188.39 53.2853 187.793 53.84C187.238 54.3947 186.961 55.1627 186.961 56.144C186.961 57.3387 187.366 58.32 188.177 59.088C189.03 59.856 190.246 60.24 191.825 60.24C193.062 60.24 194.15 59.9627 195.089 59.408C196.07 58.8107 196.838 58.0213 197.393 57.04C197.947 56.016 198.225 54.864 198.225 53.584V46.224C198.225 44.3467 197.798 43.024 196.945 42.256C196.091 41.4453 194.641 41.04 192.593 41.04C191.441 41.04 190.182 41.1893 188.817 41.488C187.494 41.744 186.022 42.192 184.401 42.832C183.462 43.2587 182.63 43.3653 181.905 43.152C181.179 42.896 180.625 42.4693 180.241 41.872C179.857 41.232 179.665 40.5493 179.665 39.824C179.665 39.056 179.878 38.3307 180.305 37.648C180.731 36.9227 181.435 36.3893 182.417 36.048C184.422 35.2373 186.299 34.6827 188.049 34.384C189.841 34.0853 191.483 33.936 192.977 33.936C196.262 33.936 198.95 34.4267 201.041 35.408C203.174 36.3467 204.774 37.8187 205.841 39.824C206.907 41.7867 207.441 44.3253 207.441 47.44V61.648C207.441 63.2267 207.057 64.4427 206.289 65.296C205.521 66.1493 204.411 66.576 202.961 66.576C201.51 66.576 200.379 66.1493 199.569 65.296C198.801 64.4427 198.417 63.2267 198.417 61.648V59.28L198.865 59.664C198.609 61.1147 198.054 62.3733 197.201 63.44C196.39 64.464 195.345 65.2747 194.065 65.872C192.785 66.4267 191.313 66.704 189.649 66.704ZM226.682 66.704C224.804 66.704 222.863 66.5333 220.858 66.192C218.895 65.8507 217.103 65.2747 215.482 64.464C214.628 64.0373 214.01 63.504 213.626 62.864C213.284 62.1813 213.135 61.4987 213.178 60.816C213.22 60.1333 213.434 59.5147 213.818 58.96C214.244 58.4053 214.778 58.0427 215.418 57.872C216.1 57.6587 216.847 57.7227 217.658 58.064C219.407 58.7893 221.007 59.3013 222.458 59.6C223.908 59.8987 225.338 60.048 226.746 60.048C228.58 60.048 229.903 59.7707 230.714 59.216C231.567 58.6187 231.994 57.8507 231.994 56.912C231.994 56.0587 231.716 55.4187 231.162 54.992C230.607 54.5653 229.796 54.2667 228.73 54.096L222.01 52.88C219.364 52.4107 217.316 51.4507 215.866 50C214.458 48.5067 213.754 46.608 213.754 44.304C213.754 42.1707 214.351 40.336 215.546 38.8C216.74 37.2213 218.383 36.0267 220.474 35.216C222.607 34.3627 225.018 33.936 227.706 33.936C229.626 33.936 231.396 34.1067 233.018 34.448C234.639 34.7893 236.196 35.344 237.69 36.112C238.458 36.496 238.991 37.008 239.29 37.648C239.631 38.288 239.738 38.9493 239.61 39.632C239.524 40.3147 239.268 40.9333 238.842 41.488C238.415 42.0427 237.86 42.4053 237.178 42.576C236.538 42.7467 235.791 42.6613 234.938 42.32C233.572 41.68 232.314 41.232 231.162 40.976C230.01 40.6773 228.9 40.528 227.833 40.528C225.914 40.528 224.527 40.848 223.674 41.488C222.82 42.0853 222.394 42.8533 222.394 43.792C222.394 44.5173 222.628 45.136 223.098 45.648C223.61 46.1173 224.378 46.4373 225.402 46.608L232.122 47.824C234.895 48.2933 237.007 49.232 238.458 50.64C239.908 52.0053 240.634 53.8827 240.634 56.272C240.634 59.5147 239.354 62.0747 236.794 63.952C234.276 65.7867 230.906 66.704 226.682 66.704ZM251.014 66.576C249.435 66.576 248.219 66.1493 247.366 65.296C246.555 64.4427 246.15 63.2267 246.15 61.648V25.232C246.15 23.6107 246.555 22.3947 247.366 21.584C248.219 20.7307 249.435 20.304 251.014 20.304C252.55 20.304 253.723 20.7307 254.534 21.584C255.387 22.3947 255.814 23.6107 255.814 25.232V47.568H255.942L265.222 37.264C266.16 36.1973 267.014 35.408 267.782 34.896C268.592 34.3413 269.659 34.064 270.982 34.064C272.304 34.064 273.307 34.4053 273.99 35.088C274.715 35.7707 275.078 36.6027 275.078 37.584C275.12 38.5227 274.715 39.4827 273.862 40.464L264.07 51.408V47.76L274.95 60.304C275.76 61.2853 276.102 62.2667 275.974 63.248C275.888 64.2293 275.462 65.04 274.694 65.68C273.926 66.2773 272.944 66.576 271.75 66.576C270.299 66.576 269.126 66.2987 268.23 65.744C267.376 65.1893 266.502 64.336 265.606 63.184L255.942 52.432H255.814V61.648C255.814 64.9333 254.214 66.576 251.014 66.576ZM293.165 66.704C289.368 66.704 286.53 65.6587 284.653 63.568C282.776 61.4347 281.837 58.2773 281.837 54.096V25.232C281.837 23.6107 282.242 22.3947 283.053 21.584C283.906 20.7307 285.122 20.304 286.701 20.304C288.237 20.304 289.41 20.7307 290.221 21.584C291.074 22.3947 291.501 23.6107 291.501 25.232V53.712C291.501 55.4613 291.864 56.7627 292.589 57.616C293.357 58.4267 294.36 58.832 295.597 58.832C295.938 58.832 296.258 58.8107 296.557 58.768C296.856 58.7253 297.176 58.704 297.517 58.704C298.2 58.6187 298.669 58.832 298.925 59.344C299.224 59.8133 299.373 60.7733 299.373 62.224C299.373 63.504 299.117 64.4853 298.605 65.168C298.093 65.808 297.304 66.2347 296.237 66.448C295.81 66.4907 295.32 66.5333 294.765 66.576C294.21 66.6613 293.677 66.704 293.165 66.704ZM310.851 78.096C309.741 78.096 308.824 77.7973 308.099 77.2C307.373 76.6027 306.947 75.8133 306.819 74.832C306.691 73.8933 306.861 72.8907 307.331 71.824L311.619 62.352V66.32L300.291 40.336C299.864 39.2267 299.715 38.2027 299.843 37.264C300.013 36.2827 300.483 35.5147 301.251 34.96C302.061 34.3627 303.171 34.064 304.579 34.064C305.731 34.064 306.648 34.3413 307.331 34.896C308.056 35.408 308.717 36.4107 309.315 37.904L316.867 57.104H314.819L322.627 37.84C323.224 36.3893 323.885 35.408 324.611 34.896C325.379 34.3413 326.403 34.064 327.683 34.064C328.792 34.064 329.667 34.3627 330.307 34.96C330.989 35.5147 331.395 36.2613 331.523 37.2C331.693 38.1387 331.523 39.1627 331.011 40.272L315.971 74.384C315.331 75.8347 314.605 76.816 313.795 77.328C313.027 77.84 312.045 78.096 310.851 78.096Z"
        fill="#4F1DED" />
    <rect x="245" y="87" width="100" height="24" rx="12" fill="#4F1DED" />
    <path
        d="M268.629 104.176C268.181 104.176 267.722 104.139 267.253 104.064C266.794 104 266.352 103.904 265.925 103.776C265.509 103.648 265.136 103.488 264.805 103.296C264.57 103.168 264.405 103.003 264.309 102.8C264.213 102.587 264.176 102.373 264.197 102.16C264.229 101.947 264.309 101.76 264.437 101.6C264.576 101.429 264.746 101.323 264.949 101.28C265.162 101.227 265.397 101.264 265.653 101.392C266.09 101.637 266.565 101.819 267.077 101.936C267.6 102.053 268.117 102.112 268.629 102.112C269.408 102.112 269.962 101.995 270.293 101.76C270.624 101.515 270.789 101.211 270.789 100.848C270.789 100.539 270.672 100.293 270.437 100.112C270.202 99.9307 269.792 99.776 269.205 99.648L267.397 99.264C266.373 99.0507 265.61 98.688 265.109 98.176C264.618 97.6533 264.373 96.9707 264.373 96.128C264.373 95.5947 264.485 95.1093 264.709 94.672C264.933 94.2347 265.248 93.856 265.653 93.536C266.058 93.216 266.538 92.9707 267.093 92.8C267.658 92.6293 268.277 92.544 268.949 92.544C269.546 92.544 270.133 92.6187 270.709 92.768C271.285 92.9067 271.792 93.1147 272.229 93.392C272.442 93.52 272.586 93.6853 272.661 93.888C272.746 94.08 272.773 94.2773 272.741 94.48C272.72 94.672 272.64 94.8427 272.501 94.992C272.373 95.1413 272.208 95.2373 272.005 95.28C271.802 95.3227 271.557 95.2747 271.269 95.136C270.917 94.9547 270.544 94.8213 270.149 94.736C269.754 94.6507 269.349 94.608 268.933 94.608C268.485 94.608 268.101 94.6667 267.781 94.784C267.472 94.9013 267.232 95.0667 267.061 95.28C266.901 95.4933 266.821 95.7387 266.821 96.016C266.821 96.3253 266.933 96.576 267.157 96.768C267.381 96.96 267.77 97.1147 268.325 97.232L270.133 97.616C271.178 97.84 271.957 98.2027 272.469 98.704C272.981 99.1947 273.237 99.8453 273.237 100.656C273.237 101.189 273.13 101.675 272.917 102.112C272.704 102.539 272.394 102.907 271.989 103.216C271.584 103.525 271.098 103.765 270.533 103.936C269.968 104.096 269.333 104.176 268.629 104.176ZM278.719 104.176C277.791 104.176 276.991 104.011 276.319 103.68C275.658 103.339 275.146 102.864 274.783 102.256C274.431 101.637 274.255 100.912 274.255 100.08C274.255 99.2693 274.426 98.56 274.767 97.952C275.108 97.3333 275.583 96.8533 276.191 96.512C276.81 96.16 277.508 95.984 278.287 95.984C278.852 95.984 279.364 96.08 279.823 96.272C280.282 96.4533 280.676 96.72 281.007 97.072C281.338 97.4133 281.588 97.8347 281.759 98.336C281.93 98.8267 282.015 99.376 282.015 99.984C282.015 100.187 281.951 100.341 281.823 100.448C281.695 100.544 281.508 100.592 281.263 100.592H276.239V99.344H280.271L280.015 99.568C280.015 99.1307 279.951 98.768 279.823 98.48C279.695 98.1813 279.508 97.9573 279.263 97.808C279.028 97.6587 278.735 97.584 278.383 97.584C277.988 97.584 277.652 97.6747 277.375 97.856C277.098 98.0373 276.884 98.2987 276.735 98.64C276.586 98.9813 276.511 99.392 276.511 99.872V100C276.511 100.811 276.698 101.408 277.071 101.792C277.455 102.176 278.02 102.368 278.767 102.368C279.023 102.368 279.316 102.336 279.647 102.272C279.978 102.208 280.287 102.107 280.575 101.968C280.82 101.851 281.039 101.813 281.231 101.856C281.423 101.888 281.572 101.973 281.679 102.112C281.786 102.251 281.844 102.411 281.855 102.592C281.876 102.773 281.839 102.955 281.743 103.136C281.647 103.307 281.487 103.451 281.263 103.568C280.9 103.771 280.49 103.92 280.031 104.016C279.583 104.123 279.146 104.176 278.719 104.176ZM284.668 104.144C284.263 104.144 283.954 104.037 283.74 103.824C283.527 103.611 283.42 103.307 283.42 102.912V97.232C283.42 96.8373 283.522 96.5387 283.724 96.336C283.938 96.1227 284.231 96.016 284.604 96.016C284.988 96.016 285.282 96.1227 285.484 96.336C285.687 96.5387 285.788 96.8373 285.788 97.232V98.064H285.628C285.756 97.424 286.039 96.928 286.476 96.576C286.914 96.224 287.479 96.0267 288.172 95.984C288.439 95.9627 288.642 96.032 288.78 96.192C288.93 96.3413 289.01 96.592 289.02 96.944C289.042 97.2747 288.972 97.536 288.812 97.728C288.663 97.92 288.407 98.0373 288.044 98.08L287.676 98.112C287.068 98.1653 286.615 98.3413 286.316 98.64C286.028 98.9387 285.884 99.3707 285.884 99.936V102.912C285.884 103.307 285.778 103.611 285.564 103.824C285.362 104.037 285.063 104.144 284.668 104.144ZM293.826 104.144C293.517 104.144 293.245 104.064 293.01 103.904C292.776 103.733 292.589 103.483 292.45 103.152L290.034 97.584C289.917 97.3067 289.874 97.0507 289.906 96.816C289.938 96.5707 290.05 96.3787 290.242 96.24C290.445 96.0907 290.722 96.016 291.074 96.016C291.362 96.016 291.597 96.0853 291.778 96.224C291.96 96.352 292.12 96.6027 292.258 96.976L294.146 101.776H293.634L295.602 96.96C295.752 96.5973 295.917 96.352 296.098 96.224C296.28 96.0853 296.53 96.016 296.85 96.016C297.128 96.016 297.346 96.0907 297.506 96.24C297.677 96.3787 297.778 96.5653 297.81 96.8C297.853 97.0347 297.81 97.2907 297.682 97.568L295.218 103.152C295.08 103.493 294.893 103.744 294.658 103.904C294.434 104.064 294.157 104.144 293.826 104.144ZM300.261 104.128C299.867 104.128 299.563 104.016 299.349 103.792C299.147 103.557 299.045 103.232 299.045 102.816V97.344C299.045 96.9173 299.147 96.592 299.349 96.368C299.563 96.1333 299.867 96.016 300.261 96.016C300.645 96.016 300.939 96.1333 301.141 96.368C301.355 96.592 301.461 96.9173 301.461 97.344V102.816C301.461 103.232 301.36 103.557 301.157 103.792C300.955 104.016 300.656 104.128 300.261 104.128ZM300.261 94.704C299.813 94.704 299.467 94.6027 299.221 94.4C298.987 94.1867 298.869 93.888 298.869 93.504C298.869 93.1093 298.987 92.8107 299.221 92.608C299.467 92.3947 299.813 92.288 300.261 92.288C300.709 92.288 301.051 92.3947 301.285 92.608C301.52 92.8107 301.637 93.1093 301.637 93.504C301.637 93.888 301.52 94.1867 301.285 94.4C301.051 94.6027 300.709 94.704 300.261 94.704ZM307.15 104.176C306.297 104.176 305.55 104.011 304.91 103.68C304.281 103.339 303.796 102.859 303.454 102.24C303.113 101.621 302.942 100.891 302.942 100.048C302.942 99.4187 303.038 98.8533 303.23 98.352C303.422 97.8507 303.7 97.424 304.062 97.072C304.436 96.72 304.884 96.4533 305.406 96.272C305.929 96.08 306.51 95.984 307.15 95.984C307.481 95.984 307.833 96.0267 308.206 96.112C308.58 96.1867 308.948 96.32 309.31 96.512C309.524 96.608 309.668 96.7467 309.742 96.928C309.828 97.0987 309.86 97.28 309.838 97.472C309.817 97.6533 309.748 97.8187 309.63 97.968C309.524 98.1067 309.385 98.2027 309.214 98.256C309.044 98.2987 308.852 98.2667 308.638 98.16C308.436 98.0427 308.222 97.9573 307.998 97.904C307.785 97.8507 307.582 97.824 307.39 97.824C307.07 97.824 306.788 97.8773 306.542 97.984C306.297 98.08 306.089 98.224 305.918 98.416C305.758 98.5973 305.63 98.8267 305.534 99.104C305.449 99.3813 305.406 99.7013 305.406 100.064C305.406 100.768 305.577 101.323 305.918 101.728C306.27 102.123 306.761 102.32 307.39 102.32C307.582 102.32 307.785 102.299 307.998 102.256C308.212 102.203 308.425 102.117 308.638 102C308.852 101.893 309.044 101.867 309.214 101.92C309.385 101.973 309.518 102.075 309.614 102.224C309.721 102.363 309.78 102.528 309.79 102.72C309.812 102.901 309.78 103.083 309.694 103.264C309.62 103.435 309.481 103.568 309.278 103.664C308.916 103.845 308.553 103.973 308.19 104.048C307.828 104.133 307.481 104.176 307.15 104.176ZM314.891 104.176C313.963 104.176 313.163 104.011 312.491 103.68C311.829 103.339 311.317 102.864 310.955 102.256C310.603 101.637 310.427 100.912 310.427 100.08C310.427 99.2693 310.597 98.56 310.939 97.952C311.28 97.3333 311.755 96.8533 312.363 96.512C312.981 96.16 313.68 95.984 314.459 95.984C315.024 95.984 315.536 96.08 315.995 96.272C316.453 96.4533 316.848 96.72 317.179 97.072C317.509 97.4133 317.76 97.8347 317.931 98.336C318.101 98.8267 318.187 99.376 318.187 99.984C318.187 100.187 318.123 100.341 317.995 100.448C317.867 100.544 317.68 100.592 317.435 100.592H312.411V99.344H316.443L316.187 99.568C316.187 99.1307 316.123 98.768 315.995 98.48C315.867 98.1813 315.68 97.9573 315.435 97.808C315.2 97.6587 314.907 97.584 314.555 97.584C314.16 97.584 313.824 97.6747 313.547 97.856C313.269 98.0373 313.056 98.2987 312.907 98.64C312.757 98.9813 312.683 99.392 312.683 99.872V100C312.683 100.811 312.869 101.408 313.243 101.792C313.627 102.176 314.192 102.368 314.939 102.368C315.195 102.368 315.488 102.336 315.819 102.272C316.149 102.208 316.459 102.107 316.747 101.968C316.992 101.851 317.211 101.813 317.403 101.856C317.595 101.888 317.744 101.973 317.851 102.112C317.957 102.251 318.016 102.411 318.027 102.592C318.048 102.773 318.011 102.955 317.915 103.136C317.819 103.307 317.659 103.451 317.435 103.568C317.072 103.771 316.661 103.92 316.203 104.016C315.755 104.123 315.317 104.176 314.891 104.176ZM322.6 104.176C322.131 104.176 321.645 104.133 321.144 104.048C320.653 103.963 320.205 103.819 319.8 103.616C319.587 103.509 319.432 103.376 319.336 103.216C319.251 103.045 319.213 102.875 319.224 102.704C319.235 102.533 319.288 102.379 319.384 102.24C319.491 102.101 319.624 102.011 319.784 101.968C319.955 101.915 320.141 101.931 320.344 102.016C320.781 102.197 321.181 102.325 321.544 102.4C321.907 102.475 322.264 102.512 322.616 102.512C323.075 102.512 323.405 102.443 323.608 102.304C323.821 102.155 323.928 101.963 323.928 101.728C323.928 101.515 323.859 101.355 323.72 101.248C323.581 101.141 323.379 101.067 323.112 101.024L321.432 100.72C320.771 100.603 320.259 100.363 319.896 100C319.544 99.6267 319.368 99.152 319.368 98.576C319.368 98.0427 319.517 97.584 319.816 97.2C320.115 96.8053 320.525 96.5067 321.048 96.304C321.581 96.0907 322.184 95.984 322.856 95.984C323.336 95.984 323.779 96.0267 324.184 96.112C324.589 96.1973 324.979 96.336 325.352 96.528C325.544 96.624 325.677 96.752 325.752 96.912C325.837 97.072 325.864 97.2373 325.832 97.408C325.811 97.5787 325.747 97.7333 325.64 97.872C325.533 98.0107 325.395 98.1013 325.224 98.144C325.064 98.1867 324.877 98.1653 324.664 98.08C324.323 97.92 324.008 97.808 323.72 97.744C323.432 97.6693 323.155 97.632 322.888 97.632C322.408 97.632 322.061 97.712 321.848 97.872C321.635 98.0213 321.528 98.2133 321.528 98.448C321.528 98.6293 321.587 98.784 321.704 98.912C321.832 99.0293 322.024 99.1093 322.28 99.152L323.96 99.456C324.653 99.5733 325.181 99.808 325.544 100.16C325.907 100.501 326.088 100.971 326.088 101.568C326.088 102.379 325.768 103.019 325.128 103.488C324.499 103.947 323.656 104.176 322.6 104.176Z"
        fill="white" />
    <defs>
        <filter id="filter0_d_349_395" x="14.655" y="16.8099" width="52.6287" height="56.1749" filterUnits="userSpaceOnUse" color-interpolation-filters="sRGB">
            <feFlood flood-opacity="0" result="BackgroundImageFix" />
            <feColorMatrix in="SourceAlpha" type="matrix" values="0 0 0 0 0 0 0 0 0 0 0 0 0 0 0 0 0 0 127 0" result="hardAlpha" />
            <feOffset dy="4" />
            <feGaussianBlur stdDeviation="2" />
            <feComposite in2="hardAlpha" operator="out" />
            <feColorMatrix type="matrix" values="0 0 0 0 0 0 0 0 0 0 0 0 0 0 0 0 0 0 0.25 0" />
            <feBlend mode="normal" in2="BackgroundImageFix" result="effect1_dropShadow_349_395" />
            <feBlend mode="normal" in="SourceGraphic" in2="effect1_dropShadow_349_395" result="shape" />
        </filter>
    </defs>
</svg>