<svg width="226" height="226" viewBox="0 0 226 226" fill="none" xmlns="http://www.w3.org/2000/svg">
    <g filter="url(#filter0_f_7_22)">
        <path d="M113 161C139.51 161 161 139.51 161 113C161 86.4903 139.51 65 113 65C86.4903 65 65 86.4903 65 113C65 139.51 86.4903 161 113 161Z" fill="url(#paint0_linear_7_22)" />
        <path
            d="M139.528 96.5513C137.838 97.2781 136.061 97.7856 134.242 98.0616C135.096 98.0616 136.343 96.3871 136.836 95.7633C137.631 94.7919 138.232 93.6775 138.609 92.4802C138.609 92.4802 138.609 92.2832 138.609 92.2175C138.569 92.1945 138.524 92.1823 138.477 92.1823C138.431 92.1823 138.386 92.1945 138.346 92.2175C136.355 93.2807 134.237 94.0861 132.042 94.6142C131.978 94.6517 131.904 94.6714 131.829 94.6714C131.754 94.6714 131.681 94.6517 131.616 94.6142C131.458 94.4127 131.282 94.2259 131.09 94.0561C130.173 93.2903 129.143 92.6702 128.037 92.2175C126.562 91.6096 124.966 91.3511 123.375 91.4624C121.826 91.5628 120.316 91.9879 118.943 92.71C117.536 93.4365 116.3 94.453 115.315 95.6924C114.33 96.9318 113.62 98.3659 113.23 99.9002C112.934 101.385 112.934 102.913 113.23 104.398C113.23 104.661 113.23 104.694 113 104.661C104.691 103.81 96.9983 99.8877 91.4296 93.6621C91.1998 93.3995 91.0684 93.3995 90.8386 93.6621C89.7209 95.7336 89.2994 98.1097 89.6365 100.439C89.9735 102.769 91.0511 104.928 92.71 106.598C93.1368 106.992 93.5636 107.386 94.0233 107.747C92.5833 107.634 91.1787 107.243 89.8865 106.598C89.6238 106.598 89.4925 106.598 89.4597 106.795C89.4284 107.21 89.4284 107.627 89.4597 108.042C89.7087 109.981 90.4696 111.817 91.6641 113.364C92.8586 114.91 94.4435 116.111 96.2559 116.841C96.6932 117.048 97.1574 117.191 97.6348 117.268C96.2885 117.51 94.9099 117.51 93.5636 117.268C93.2681 117.268 93.1368 117.268 93.2682 117.662C93.9676 119.487 95.1221 121.102 96.622 122.355C98.1218 123.608 99.9171 124.456 101.837 124.819C102.231 124.819 102.625 124.819 103.019 124.819C103.413 124.819 103.019 124.819 103.019 124.819C101.345 126.324 99.327 127.395 97.1423 127.938C94.2938 128.958 91.2588 129.35 88.2449 129.088C87.7853 129.088 87.6868 129.088 87.5554 129.088C87.4241 129.088 87.5554 129.285 87.5554 129.383C88.1489 129.786 88.7625 130.159 89.394 130.499C91.2847 131.497 93.2769 132.29 95.3366 132.863C100.645 134.464 106.281 134.643 111.679 133.381C117.078 132.119 122.051 129.461 126.1 125.673C128.988 122.554 131.229 118.894 132.694 114.905C134.159 110.915 134.819 106.674 134.636 102.428C134.636 102.1 135.03 101.903 135.293 101.739C136.885 100.491 138.29 99.0205 139.462 97.3721C139.659 97.1445 139.764 96.852 139.758 96.5513C139.758 96.5513 139.758 96.4528 139.528 96.5513Z"
            fill="white" />
    </g>
    <path d="M113 161C139.51 161 161 139.51 161 113C161 86.4903 139.51 65 113 65C86.4903 65 65 86.4903 65 113C65 139.51 86.4903 161 113 161Z" fill="url(#paint1_linear_7_22)" />
    <path
        d="M139.528 96.5513C137.838 97.2781 136.061 97.7856 134.242 98.0616C135.096 98.0616 136.343 96.3871 136.836 95.7633C137.631 94.7919 138.232 93.6775 138.609 92.4802C138.609 92.4802 138.609 92.2832 138.609 92.2175C138.569 92.1945 138.524 92.1823 138.477 92.1823C138.431 92.1823 138.386 92.1945 138.346 92.2175C136.355 93.2807 134.237 94.0861 132.042 94.6142C131.978 94.6517 131.904 94.6714 131.829 94.6714C131.754 94.6714 131.681 94.6517 131.616 94.6142C131.458 94.4127 131.282 94.2259 131.09 94.0561C130.173 93.2903 129.143 92.6702 128.037 92.2175C126.562 91.6096 124.966 91.3511 123.375 91.4624C121.826 91.5628 120.316 91.9879 118.943 92.71C117.536 93.4365 116.3 94.453 115.315 95.6924C114.33 96.9318 113.62 98.3659 113.23 99.9002C112.934 101.385 112.934 102.913 113.23 104.398C113.23 104.661 113.23 104.694 113 104.661C104.691 103.81 96.9983 99.8877 91.4296 93.6621C91.1998 93.3995 91.0684 93.3995 90.8386 93.6621C89.7209 95.7336 89.2994 98.1097 89.6365 100.439C89.9735 102.769 91.0511 104.928 92.71 106.598C93.1368 106.992 93.5636 107.386 94.0233 107.747C92.5833 107.634 91.1787 107.243 89.8865 106.598C89.6238 106.598 89.4925 106.598 89.4597 106.795C89.4284 107.21 89.4284 107.627 89.4597 108.042C89.7087 109.981 90.4696 111.817 91.6641 113.364C92.8586 114.91 94.4435 116.111 96.2559 116.841C96.6932 117.048 97.1574 117.191 97.6348 117.268C96.2885 117.51 94.9099 117.51 93.5636 117.268C93.2681 117.268 93.1368 117.268 93.2682 117.662C93.9676 119.487 95.1221 121.102 96.622 122.355C98.1218 123.608 99.9171 124.456 101.837 124.819C102.231 124.819 102.625 124.819 103.019 124.819C103.413 124.819 103.019 124.819 103.019 124.819C101.345 126.324 99.327 127.395 97.1423 127.938C94.2938 128.958 91.2588 129.35 88.2449 129.088C87.7853 129.088 87.6868 129.088 87.5554 129.088C87.4241 129.088 87.5554 129.285 87.5554 129.383C88.1489 129.786 88.7625 130.159 89.394 130.499C91.2847 131.497 93.2769 132.29 95.3366 132.863C100.645 134.464 106.281 134.643 111.679 133.381C117.078 132.119 122.051 129.461 126.1 125.673C128.988 122.554 131.229 118.894 132.694 114.905C134.159 110.915 134.819 106.674 134.636 102.428C134.636 102.1 135.03 101.903 135.293 101.739C136.885 100.491 138.29 99.0205 139.462 97.3721C139.659 97.1445 139.764 96.852 139.758 96.5513C139.758 96.5513 139.758 96.4528 139.528 96.5513Z"
        fill="white" />
    <defs>
        <filter id="filter0_f_7_22" x="0" y="0" width="226" height="226" filterUnits="userSpaceOnUse" color-interpolation-filters="sRGB">
            <feFlood flood-opacity="0" result="BackgroundImageFix" />
            <feBlend mode="normal" in="SourceGraphic" in2="BackgroundImageFix" result="shape" />
            <feGaussianBlur stdDeviation="32.5" result="effect1_foregroundBlur_7_22" />
        </filter>
        <linearGradient id="paint0_linear_7_22" x1="146.948" y1="79.052" x2="79.052" y2="146.948" gradientUnits="userSpaceOnUse">
            <stop stop-color="#33CCFF" />
            <stop offset="1" stop-color="#337FFF" />
        </linearGradient>
        <linearGradient id="paint1_linear_7_22" x1="146.948" y1="79.052" x2="79.052" y2="146.948" gradientUnits="userSpaceOnUse">
            <stop stop-color="#33CCFF" />
            <stop offset="1" stop-color="#337FFF" />
        </linearGradient>
    </defs>
</svg>